<?xml version="1.0" encoding="utf-8"?>
<svg version="1.1" xmlns:xlink="http://www.w3.org/1999/xlink" width="18px" height="18px" xmlns="http://www.w3.org/2000/svg">
  <g transform="matrix(1 0 0 1 -53 -355 )">
    <path d="M 10.892578125 9.966796875  C 11.224609375 9.189453125  11.390625 8.39453125  11.390625 7.58203125  C 11.390625 6.73828125  11.181640625 6.078125  10.763671875 5.6015625  C 10.345703125 5.125  9.76953125 4.88671875  9.03515625 4.88671875  C 8.54296875 4.88671875  8.05859375 5.005859375  7.58203125 5.244140625  C 7.10546875 5.482421875  6.67578125 5.8125  6.29296875 6.234375  C 5.91015625 6.65625  5.599609375 7.19140625  5.361328125 7.83984375  C 5.123046875 8.48828125  5.00390625 9.19140625  5.00390625 9.94921875  C 5.00390625 10.82421875  5.212890625 11.5  5.630859375 11.9765625  C 6.048828125 12.453125  6.63671875 12.69140625  7.39453125 12.69140625  C 8.14453125 12.69140625  8.83203125 12.431640625  9.45703125 11.912109375  C 10.08203125 11.392578125  10.560546875 10.744140625  10.892578125 9.966796875  Z M 15.515625 2.484375  C 17.171875 4.140625  18 6.3125  18 9  C 18 9.8671875  17.85546875 10.63671875  17.56640625 11.30859375  C 17.27734375 11.98046875  16.892578125 12.5078125  16.412109375 12.890625  C 15.931640625 13.2734375  15.41796875 13.564453125  14.87109375 13.763671875  C 14.32421875 13.962890625  13.7578125 14.0703125  13.171875 14.0859375  C 13.125 14.0859375  13.064453125 14.087890625  12.990234375 14.091796875  C 12.916015625 14.095703125  12.8515625 14.09765625  12.796875 14.09765625  C 12.0546875 14.09765625  11.5 13.890625  11.1328125 13.4765625  C 10.9140625 13.21875  10.78515625 12.89453125  10.74609375 12.50390625  C 10.33984375 13.01953125  9.826171875 13.44921875  9.205078125 13.79296875  C 8.583984375 14.13671875  7.90625 14.30859375  7.171875 14.30859375  C 5.9140625 14.30859375  4.939453125 13.935546875  4.248046875 13.189453125  C 3.556640625 12.443359375  3.2109375 11.390625  3.2109375 10.03125  C 3.2109375 8.8046875  3.46875 7.671875  3.984375 6.6328125  C 4.5 5.59375  5.19921875 4.771484375  6.08203125 4.166015625  C 6.96484375 3.560546875  7.92578125 3.2578125  8.96484375 3.2578125  C 9.64453125 3.2578125  10.25 3.396484375  10.78125 3.673828125  C 11.3125 3.951171875  11.7265625 4.33984375  12.0234375 4.83984375  L 12.046875 4.6171875  L 12.17578125 3.9609375  C 12.18359375 3.9140625  12.205078125 3.8671875  12.240234375 3.8203125  C 12.275390625 3.7734375  12.3125 3.75  12.3515625 3.75  L 13.734375 3.75  C 13.7734375 3.75  13.82421875 3.79296875  13.88671875 3.87890625  C 13.92578125 3.91796875  13.9375 3.98046875  13.921875 4.06640625  L 12.515625 11.26171875  C 12.4765625 11.44921875  12.45703125 11.63671875  12.45703125 11.82421875  C 12.45703125 12.12890625  12.505859375 12.33203125  12.603515625 12.43359375  C 12.701171875 12.53515625  12.875 12.5859375  13.125 12.5859375  C 13.34375 12.578125  13.56640625 12.556640625  13.79296875 12.521484375  C 14.01953125 12.486328125  14.3046875 12.392578125  14.6484375 12.240234375  C 14.9921875 12.087890625  15.29296875 11.892578125  15.55078125 11.654296875  C 15.80859375 11.416015625  16.03125 11.06640625  16.21875 10.60546875  C 16.40625 10.14453125  16.5 9.609375  16.5 9  C 16.5 6.71875  15.8203125 4.8984375  14.4609375 3.5390625  C 13.1015625 2.1796875  11.28125 1.5  9 1.5  C 7.984375 1.5  7.013671875 1.69921875  6.087890625 2.09765625  C 5.162109375 2.49609375  4.365234375 3.029296875  3.697265625 3.697265625  C 3.029296875 4.365234375  2.49609375 5.162109375  2.09765625 6.087890625  C 1.69921875 7.013671875  1.5 7.984375  1.5 9  C 1.5 10.015625  1.69921875 10.986328125  2.09765625 11.912109375  C 2.49609375 12.837890625  3.029296875 13.634765625  3.697265625 14.302734375  C 4.365234375 14.970703125  5.162109375 15.50390625  6.087890625 15.90234375  C 7.013671875 16.30078125  7.984375 16.5  9 16.5  C 10.78125 16.5  12.36328125 15.9375  13.74609375 14.8125  C 13.83203125 14.7421875  13.92578125 14.7109375  14.02734375 14.71875  C 14.12890625 14.7265625  14.2109375 14.7734375  14.2734375 14.859375  L 14.75390625 15.43359375  C 14.81640625 15.52734375  14.84375 15.62109375  14.8359375 15.71484375  C 14.8203125 15.81640625  14.7734375 15.90234375  14.6953125 15.97265625  C 13.8984375 16.62109375  13.009765625 17.12109375  12.029296875 17.47265625  C 11.048828125 17.82421875  10.0390625 18  9 18  C 7.78125 18  6.6171875 17.76171875  5.5078125 17.28515625  C 4.3984375 16.80859375  3.44140625 16.16796875  2.63671875 15.36328125  C 1.83203125 14.55859375  1.19140625 13.6015625  0.71484375 12.4921875  C 0.23828125 11.3828125  0 10.21875  0 9  C 0 7.78125  0.23828125 6.6171875  0.71484375 5.5078125  C 1.19140625 4.3984375  1.83203125 3.44140625  2.63671875 2.63671875  C 3.44140625 1.83203125  4.3984375 1.19140625  5.5078125 0.714843749999999  C 6.6171875 0.23828125  7.78125 0  9 0  C 11.6875 0  13.859375 0.828124999999998  15.515625 2.484375  Z " fill-rule="nonzero" fill="#555555" stroke="none" transform="matrix(1 0 0 1 53 355 )" />
  </g>
</svg>