<?xml version="1.0" encoding="utf-8"?>
<svg version="1.1" xmlns:xlink="http://www.w3.org/1999/xlink" width="18px" height="21px" xmlns="http://www.w3.org/2000/svg">
  <g transform="matrix(1 0 0 1 -53 -298 )">
    <path d="M 17.1734693877551 8.60390625  C 17.1734693877551 7.45078125  16.9461734693878 6.33046875  16.4984693877551 5.27578125  C 16.0668367346939 4.25859375  15.4492346938775 3.346875  14.6640306122449 2.5640625  C 13.8788265306122 1.78125  12.9673469387755 1.16953125  11.9502551020408 0.740625  C 10.8987244897959 0.295312499999999  9.7829081632653 0.0703124999999996  8.63265306122449 0.0703124999999996  C 7.48239795918367 0.0703124999999996  6.36658163265306 0.295312499999999  5.31505102040816 0.73828125  C 4.29795918367347 1.1671875  3.38647959183674 1.78125  2.60127551020408 2.56171875  C 1.81607142857143 3.34453125  1.1984693877551 4.25859375  0.766836734693876 5.2734375  C 0.319132653061224 6.328125  0.091836734693878 7.4484375  0.091836734693878 8.6015625  C 0.091836734693878 10.25625  0.47984693877551 11.90390625  1.24209183673469 13.49296875  C 1.85510204081633 14.7703125  2.71147959183673 16.01484375  3.7905612244898 17.1984375  C 5.63418367346939 19.21875  7.56734693877551 20.45390625  8.11607142857143 20.784375  C 8.27448979591836 20.88046875  8.45357142857143 20.92734375  8.63035714285714 20.92734375  C 8.8094387755102 20.92734375  8.98622448979592 20.88046875  9.14464285714285 20.784375  C 9.69336734693877 20.45390625  11.6265306122449 19.21875  13.4701530612245 17.1984375  C 14.5492346938775 16.0171875  15.405612244898 14.7703125  16.0186224489796 13.49296875  C 16.7854591836735 11.90625  17.1734693877551 10.2609375  17.1734693877551 8.60390625  Z M 15.5204081632653 8.60390625  C 15.5204081632653 14.259375  10.1456632653061 18.14765625  8.63265306122449 19.1296875  C 7.11964285714286 18.14765625  1.74489795918367 14.259375  1.74489795918367 8.60390625  C 1.74489795918367 6.778125  2.45892857142857 5.0625  3.75612244897959 3.76875  C 5.05790816326531 2.47265625  6.7890306122449 1.7578125  8.63265306122449 1.7578125  C 10.4762755102041 1.7578125  12.2073979591837 2.47265625  13.5091836734694 3.77109375  C 14.8063775510204 5.0625  15.5204081632653 6.778125  15.5204081632653 8.60390625  Z M 12.6734693877551 8.7890625  C 12.6734693877551 6.5109375  10.8642857142857 4.6640625  8.63265306122449 4.6640625  C 6.40102040816326 4.6640625  4.59183673469387 6.5109375  4.59183673469387 8.7890625  C 4.59183673469387 11.0671875  6.40102040816326 12.9140625  8.63265306122449 12.9140625  C 10.8642857142857 12.9140625  12.6734693877551 11.0671875  12.6734693877551 8.7890625  Z M 11.2040816326531 8.7890625  C 11.2040816326531 9.48984375  10.9377551020408 10.1484375  10.4510204081633 10.6453125  C 9.96428571428572 11.13984375  9.31913265306122 11.4140625  8.63265306122449 11.4140625  C 7.94617346938775 11.4140625  7.30102040816326 11.13984375  6.81428571428571 10.6453125  C 6.32984693877551 10.1484375  6.06122448979592 9.48984375  6.06122448979592 8.7890625  C 6.06122448979592 8.08828125  6.32984693877551 7.4296875  6.81428571428571 6.9328125  C 7.30102040816326 6.4359375  7.94617346938775 6.1640625  8.63265306122449 6.1640625  C 9.31913265306122 6.1640625  9.96428571428572 6.4359375  10.4510204081633 6.9328125  C 10.9377551020408 7.4296875  11.2040816326531 8.08828125  11.2040816326531 8.7890625  Z " fill-rule="nonzero" fill="#555555" stroke="none" transform="matrix(1 0 0 1 53 298 )" />
  </g>
</svg>