<?xml version="1.0" encoding="utf-8"?>
<svg version="1.1" xmlns:xlink="http://www.w3.org/1999/xlink" width="19px" height="20px" xmlns="http://www.w3.org/2000/svg">
  <g transform="matrix(1 0 0 1 -53 -410 )">
    <path d="M 18.8347826086956 19.745  C 18.81 18.55  18.564652173913 17.3875  18.1036956521739 16.29  C 17.6353043478261 15.17  16.9612173913043 14.165  16.1062173913043 13.3025  C 15.2512173913043 12.44  14.2549565217391 11.7625  13.1446956521738 11.2875  C 13.1347826086956 11.2825  13.1248695652173 11.28  13.1149565217391 11.275  C 14.6589130434783 10.15  15.6626086956521 8.3175  15.6626086956521 6.25  C 15.6626086956521 2.82499999999999  12.9117391304348 0.0499999999999545  9.51652173913042 0.0499999999999545  C 6.12130434782606 0.0499999999999545  3.37043478260873 2.82499999999999  3.37043478260873 6.25  C 3.37043478260873 8.3175  4.37413043478257 10.15  5.91808695652173 11.2775  C 5.90817391304351 11.2825  5.89826086956521 11.285  5.88834782608699 11.29  C 4.77808695652173 11.7625  3.7818260869565 12.44  2.92682608695653 13.305  C 2.07182608695655 14.1675  1.40021739130439 15.1725  0.929347826086957 16.2925  C 0.468391304347832 17.3875  0.223043478260855 18.55  0.198260869565225 19.745  C 0.195782608695624 19.8575  0.285000000000023 19.95  0.39652173913045 19.95  L 1.88347826086954 19.95  C 1.99252173913046 19.95  2.07926086956526 19.8625  2.08173913043477 19.755  C 2.13130434782612 17.825  2.8995652173913 16.0175  4.25765217391304 14.6475  C 5.66282608695654 13.23  7.52895652173916 12.45  9.51652173913042 12.45  C 11.5040869565217 12.45  13.3702173913043 13.23  14.7753913043478 14.6475  C 16.1334782608695 16.0175  16.9017391304347 17.825  16.9513043478261 19.755  C 16.9537826086956 19.865  17.0405217391304 19.95  17.1495652173913 19.95  L 18.6365217391304 19.95  C 18.7480434782608 19.95  18.8372608695652 19.8575  18.8347826086956 19.745  Z M 12.5300869565217 9.29000000000002  C 11.724652173913 10.1025  10.6540434782608 10.55  9.51652173913042 10.55  C 8.37900000000002 10.55  7.30839130434781 10.1025  6.50295652173909 9.29000000000002  C 5.69752173913038 8.4775  5.25391304347827 7.39749999999996  5.25391304347827 6.25  C 5.25391304347827 5.10250000000004  5.69752173913038 4.0225  6.50295652173909 3.20999999999998  C 7.30839130434781 2.39749999999996  8.37900000000002 1.95000000000003  9.51652173913042 1.95000000000003  C 10.6540434782608 1.95000000000003  11.724652173913 2.39749999999996  12.5300869565217 3.20999999999998  C 13.3355217391305 4.0225  13.7791304347826 5.10250000000004  13.7791304347826 6.25  C 13.7791304347826 7.39749999999996  13.3355217391305 8.4775  12.5300869565217 9.29000000000002  Z " fill-rule="nonzero" fill="#555555" stroke="none" transform="matrix(1 0 0 1 53 410 )" />
  </g>
</svg>