<?xml version="1.0" encoding="utf-8"?>
<svg version="1.1" xmlns:xlink="http://www.w3.org/1999/xlink" width="20px" height="16px" xmlns="http://www.w3.org/2000/svg">
  <g transform="matrix(1 0 0 1 -376 -481 )">
    <path d="M 10 15.2857142857143  C 10.1056105610561 15.2857142857143  10.1584158415842 15.2380952380952  10.1584158415842 15.1428571428571  C 10.1584158415842 15.047619047619  10.1056105610561 15  10 15  C 9.61056105610561 15  9.27557755775578 14.8735119047619  8.9950495049505 14.6205357142857  C 8.71452145214522 14.3675595238095  8.57425742574257 14.0654761904762  8.57425742574257 13.7142857142857  C 8.57425742574257 13.6190476190476  8.52145214521452 13.5714285714286  8.41584158415842 13.5714285714286  C 8.31023102310231 13.5714285714286  8.25742574257426 13.6190476190476  8.25742574257426 13.7142857142857  C 8.25742574257426 14.1488095238095  8.42739273927393 14.5193452380952  8.76732673267327 14.8258928571429  C 9.10726072607261 15.1324404761905  9.51815181518152 15.2857142857143  10 15.2857142857143  Z M 6.1980198019802 5.14285714285714  C 6.1980198019802 7.42857142857143  5.74587458745875 9.34821428571428  4.84158415841584 10.9017857142857  L 13.5247524752475 4.11607142857143  C 13.2475247524752 3.5922619047619  12.8102310231023 3.15625  12.2128712871287 2.80803571428571  C 11.6155115511551 2.45982142857143  10.8778877887789 2.28571428571429  10 2.28571428571429  C 9.38613861386139 2.28571428571429  8.82673267326733 2.37946428571429  8.32178217821782 2.56696428571429  C 7.81683168316832 2.75446428571429  7.41584158415842 2.99404761904762  7.11881188118812 3.28571428571429  C 6.82178217821782 3.57738095238095  6.59405940594059 3.88392857142857  6.43564356435644 4.20535714285714  C 6.27722772277228 4.52678571428571  6.1980198019802 4.83928571428571  6.1980198019802 5.14285714285714  Z M 15.2871287128713 7.60714285714286  C 15.6897689768977 9.72619047619047  16.6732673267327 11.3809523809524  18.2376237623762 12.5714285714286  C 18.2376237623762 12.8809523809524  18.1122112211221 13.1488095238095  17.8613861386139 13.375  C 17.6105610561056 13.6011904761905  17.3135313531353 13.7142857142857  16.970297029703 13.7142857142857  L 12.5346534653465 13.7142857142857  C 12.5346534653465 14.3452380952381  12.2871287128713 14.8839285714286  11.7920792079208 15.3303571428571  C 11.2970297029703 15.7767857142857  10.6996699669967 16  10 16  C 9.3003300330033 16  8.70462046204621 15.7782738095238  8.21287128712871 15.3348214285714  C 7.72112211221122 14.891369047619  7.47194719471947 14.3541666666667  7.46534653465346 13.7232142857143  L 8.94059405940594 12.5714285714286  L 16.4356435643564 12.5714285714286  C 15.3399339933993 11.4583333333333  14.5907590759076 10.0922619047619  14.1881188118812 8.47321428571428  L 15.2871287128713 7.60714285714286  Z M 18.8762376237624 0.0446428571428577  C 18.9653465346535 0.0505952380952372  19.036303630363 0.0833333333333321  19.0891089108911 0.142857142857142  L 19.9207920792079 1  C 19.973597359736 1.05952380952381  19.9983498349835 1.12946428571429  19.9950495049505 1.20982142857143  C 19.9917491749175 1.29017857142857  19.957095709571 1.35714285714286  19.8910891089109 1.41071428571429  L 1.35643564356436 15.8928571428571  C 1.29042904290429 15.9404761904762  1.21287128712871 15.9613095238095  1.12376237623762 15.9553571428571  C 1.03465346534653 15.9494047619048  0.963696369636964 15.9166666666667  0.910891089108911 15.8571428571429  L 0.0792079207920792 15  C 0.0264026402640264 14.9404761904762  0.00165016501650166 14.8705357142857  0.00495049504950495 14.7901785714286  C 0.00825082508250827 14.7098214285714  0.0429042904290429 14.6458333333333  0.108910891089109 14.5982142857143  L 1.95049504950495 13.1607142857143  C 1.82508250825082 12.9702380952381  1.76237623762376 12.7738095238095  1.76237623762376 12.5714285714286  C 2.09240924092409 12.3214285714286  2.39273927392739 12.0595238095238  2.66336633663366 11.7857142857143  C 2.93399339933993 11.5119047619048  3.21452145214522 11.15625  3.5049504950495 10.71875  C 3.7953795379538 10.28125  4.04125412541254 9.80952380952381  4.24257425742574 9.30357142857143  C 4.44389438943894 8.79761904761905  4.60891089108911 8.18452380952381  4.73762376237624 7.46428571428571  C 4.86633663366337 6.74404761904762  4.93069306930693 5.97023809523809  4.93069306930693 5.14285714285714  C 4.93069306930693 4.23809523809524  5.31683168316832 3.39732142857143  6.08910891089109 2.62053571428571  C 6.86138613861386 1.84375  7.87458745874588 1.37202380952381  9.12871287128713 1.20535714285714  C 9.07590759075908 1.0922619047619  9.04950495049505 0.976190476190476  9.04950495049505 0.857142857142858  C 9.04950495049505 0.619047619047619  9.14191419141914 0.416666666666666  9.32673267326733 0.25  C 9.51155115511551 0.0833333333333339  9.73597359735974 0  10 0  C 10.2640264026403 0  10.4884488448845 0.0833333333333339  10.6732673267327 0.25  C 10.8580858085809 0.416666666666666  10.950495049505 0.619047619047619  10.950495049505 0.857142857142858  C 10.950495049505 0.976190476190476  10.9240924092409 1.0922619047619  10.8712871287129 1.20535714285714  C 11.6897689768977 1.3125  12.4125412541254 1.55803571428571  13.039603960396 1.94196428571429  C 13.6666666666667 2.32589285714286  14.1551155115512 2.79464285714286  14.5049504950495 3.34821428571429  L 18.6435643564356 0.107142857142858  C 18.7095709570957 0.0595238095238084  18.7871287128713 0.0386904761904763  18.8762376237624 0.0446428571428577  Z " fill-rule="nonzero" fill="#7f7f7f" stroke="none" transform="matrix(1 0 0 1 376 481 )" />
  </g>
</svg>