<?xml version="1.0" encoding="utf-8"?>
<svg version="1.1" xmlns:xlink="http://www.w3.org/1999/xlink" width="24px" height="24px" xmlns="http://www.w3.org/2000/svg">
  <g transform="matrix(1 0 0 1 -384 -34 )">
    <path d="M 24 12  C 24 5.3732142857143  18.6267857142857 0  12 0  C 5.3732142857143 0  0 5.3732142857143  0 12  C 0 18.6267857142857  5.3732142857143 24  12 24  C 18.6267857142857 24  24 18.6267857142857  24 12  Z M 21.9642857142857 12  C 21.9642857142857 17.5017857142857  17.5017857142857 21.9642857142857  12 21.9642857142857  C 6.4982142857143 21.9642857142857  2.03571428571428 17.5017857142857  2.03571428571428 12  C 2.03571428571428 6.4982142857143  6.4982142857143 2.03571428571428  12 2.03571428571428  C 17.5017857142857 2.03571428571428  21.9642857142857 6.4982142857143  21.9642857142857 12  Z M 17.1428571428571 11.3571428571429  C 17.1428571428571 11.2392857142857  17.0464285714286 11.1428571428571  16.9285714285714 11.1428571428571  L 12.8571428571429 11.1428571428571  L 12.8571428571429 7.07142857142857  C 12.8571428571429 6.95357142857144  12.7607142857143 6.85714285714286  12.6428571428571 6.85714285714286  L 11.3571428571429 6.85714285714286  C 11.2392857142857 6.85714285714286  11.1428571428571 6.95357142857144  11.1428571428571 7.07142857142857  L 11.1428571428571 11.1428571428571  L 7.07142857142857 11.1428571428571  C 6.95357142857144 11.1428571428571  6.85714285714286 11.2392857142857  6.85714285714286 11.3571428571429  L 6.85714285714286 12.6428571428571  C 6.85714285714286 12.7607142857143  6.95357142857144 12.8571428571429  7.07142857142857 12.8571428571429  L 11.1428571428571 12.8571428571429  L 11.1428571428571 16.9285714285714  C 11.1428571428571 17.0464285714286  11.2392857142857 17.1428571428571  11.3571428571429 17.1428571428571  L 12.6428571428571 17.1428571428571  C 12.7607142857143 17.1428571428571  12.8571428571429 17.0464285714286  12.8571428571429 16.9285714285714  L 12.8571428571429 12.8571428571429  L 16.9285714285714 12.8571428571429  C 17.0464285714286 12.8571428571429  17.1428571428571 12.7607142857143  17.1428571428571 12.6428571428571  L 17.1428571428571 11.3571428571429  Z " fill-rule="nonzero" fill="#000000" stroke="none" transform="matrix(1 0 0 1 384 34 )" />
  </g>
</svg>