<?xml version="1.0" encoding="utf-8"?>
<svg version="1.1" xmlns:xlink="http://www.w3.org/1999/xlink" width="24px" height="20px" xmlns="http://www.w3.org/2000/svg">
  <g transform="matrix(1 0 0 1 -18 -80 )">
    <path d="M 23.6654438738078 0.950843727072634  C 23.6654438738078 0.483345561261924  23.2877476155539 0.105649303008072  22.8202494497432 0.105649303008072  L 0.845194424064562 0.105649303008072  C 0.377696258253852 0.105649303008072  0 0.483345561261924  0 0.950843727072634  L 0 14.0513573000734  C 0 14.5188554658841  0.377696258253852 14.8965517241379  0.845194424064562 14.8965517241379  L 10.8818782098313 14.8965517241379  L 10.8818782098313 17.8547322083639  L 6.33895818048423 17.8547322083639  C 6.10652971386647 17.8547322083639  5.91636096845195 18.0449009537784  5.91636096845195 18.2773294203962  L 5.91636096845195 19.545121056493  C 5.91636096845195 19.6613352898019  6.01144534115921 19.7564196625092  6.12765957446809 19.7564196625092  L 17.5377842993397 19.7564196625092  C 17.6539985326486 19.7564196625092  17.7490829053558 19.6613352898019  17.7490829053558 19.545121056493  L 17.7490829053558 18.2773294203962  C 17.7490829053558 18.0449009537784  17.5589141599413 17.8547322083639  17.3264856933235 17.8547322083639  L 12.7835656639765 17.8547322083639  L 12.7835656639765 14.8965517241379  L 22.8202494497432 14.8965517241379  C 23.2877476155539 14.8965517241379  23.6654438738078 14.5188554658841  23.6654438738078 14.0513573000734  L 23.6654438738078 0.950843727072634  Z M 21.7637564196625 2  L 21.7637564196625 13  L 2 13  L 2 2  L 21.7637564196625 2  Z " fill-rule="nonzero" fill="#666666" stroke="none" transform="matrix(1 0 0 1 18 80 )" />
  </g>
</svg>