<?xml version="1.0" encoding="utf-8"?>
<svg version="1.1" xmlns:xlink="http://www.w3.org/1999/xlink" width="22px" height="30px" xmlns="http://www.w3.org/2000/svg">
  <g transform="matrix(1 0 0 1 -12 -358 )">
    <path d="M 21.85390625 21.689453125  C 21.9513020833333 22.6725260416667  22 23.7174479166667  22 24.82421875  C 22 26.2434895833333  21.6419270833333 27.4609375  20.92578125 28.4765625  C 20.2096354166667 29.4921875  19.3473958333333 30  18.3390625 30  L 3.6609375 30  C 2.65260416666667 30  1.79036458333333 29.4921875  1.07421875 28.4765625  C 0.358072916666667 27.4609375  0 26.2434895833333  0 24.82421875  C 0 23.7174479166667  0.0486979166666668 22.6725260416667  0.14609375 21.689453125  C 0.243489583333333 20.7063802083333  0.423958333333333 19.716796875  0.6875 18.720703125  C 0.951041666666667 17.724609375  1.28619791666667 16.8717447916667  1.69296875 16.162109375  C 2.09973958333333 15.4524739583333  2.63828125 14.873046875  3.30859375 14.423828125  C 3.97890625 13.974609375  4.74947916666667 13.75  5.6203125 13.75  C 7.12135416666667 15.4166666666667  8.91458333333333 16.25  11 16.25  C 13.0854166666667 16.25  14.8786458333333 15.4166666666667  16.3796875 13.75  C 17.2505208333333 13.75  18.02109375 13.974609375  18.69140625 14.423828125  C 19.36171875 14.873046875  19.9002604166667 15.4524739583333  20.30703125 16.162109375  C 20.7138020833333 16.8717447916667  21.0489583333333 17.724609375  21.3125 18.720703125  C 21.5760416666667 19.716796875  21.7565104166667 20.7063802083333  21.85390625 21.689453125  Z M 15.66640625 2.197265625  C 16.95546875 3.662109375  17.6 5.4296875  17.6 7.5  C 17.6 9.5703125  16.95546875 11.337890625  15.66640625 12.802734375  C 14.37734375 14.267578125  12.821875 15  11 15  C 9.178125 15  7.62265625 14.267578125  6.33359375 12.802734375  C 5.04453125 11.337890625  4.4 9.5703125  4.4 7.5  C 4.4 5.4296875  5.04453125 3.662109375  6.33359375 2.197265625  C 7.62265625 0.732421875  9.178125 0  11 0  C 12.821875 0  14.37734375 0.732421875  15.66640625 2.197265625  Z " fill-rule="nonzero" fill="#aaaaaa" stroke="none" transform="matrix(1 0 0 1 12 358 )" />
  </g>
</svg>