<?xml version="1.0" encoding="utf-8"?>
<svg version="1.1" xmlns:xlink="http://www.w3.org/1999/xlink" width="24px" height="30px" xmlns="http://www.w3.org/2000/svg">
  <g transform="matrix(1 0 0 1 -12 -433 )">
    <path d="M 23.8473282442748 18.2142857142857  C 23.7150127226463 18.4709821428571  23.501272264631 18.6328125  23.206106870229 18.6997767857143  L 20.6564885496183 19.2522321428571  L 23.4961832061069 21.0435267857143  C 23.7302798982188 21.1886160714286  23.8804071246819 21.4034598214286  23.9465648854962 21.6880580357143  C 24.0127226463104 21.97265625  23.9796437659033 22.2433035714286  23.8473282442748 22.5  C 23.704834605598 22.7566964285714  23.5063613231552 22.9213169642857  23.2519083969466 22.9938616071429  C 22.9974554707379 23.06640625  22.7531806615776 23.0301339285714  22.5190839694656 22.8850446428571  L 19.6793893129771 21.1104910714286  L 20.5190839694656 23.7890625  C 20.6513994910941 24.2131696428571  20.5903307888041 24.5675223214286  20.3358778625954 24.8521205357143  C 20.0814249363868 25.13671875  19.7735368956743 25.2511160714286  19.412213740458 25.1953125  C 19.0508905852417 25.1395089285714  18.8040712468193 24.9051339285714  18.6717557251908 24.4921875  L 17.1145038167939 19.4698660714286  L 12.9770992366412 16.8582589285714  L 12.9770992366412 22.0982142857143  L 16.1526717557252 26.0825892857143  C 16.3155216284987 26.2834821428571  16.4020356234097 26.5011160714286  16.412213740458 26.7354910714286  C 16.4223918575064 26.9698660714286  16.3664122137405 27.1735491071429  16.2442748091603 27.3465401785714  C 16.1221374045802 27.51953125  15.9770992366412 27.6590401785714  15.8091603053435 27.7650669642857  C 15.6412213740458 27.87109375  15.4529262086514 27.9017857142857  15.2442748091603 27.8571428571429  C 15.0356234096692 27.8125  14.8498727735369 27.6897321428571  14.6870229007634 27.4888392857143  L 12.9770992366412 25.3459821428571  L 12.9770992366412 28.9285714285714  C 12.9770992366412 29.21875  12.8804071246819 29.4698660714286  12.6870229007634 29.6819196428571  C 12.4936386768448 29.8939732142857  12.264631043257 30  12 30  C 11.735368956743 30  11.5063613231552 29.8939732142857  11.3129770992366 29.6819196428571  C 11.1195928753181 29.4698660714286  11.0229007633588 29.21875  11.0229007633588 28.9285714285714  L 11.0229007633588 25.3459821428571  L 9.31297709923664 27.4888392857143  C 9.15012722646311 27.6897321428571  8.96437659033079 27.8125  8.75572519083969 27.8571428571429  C 8.5470737913486 27.9017857142857  8.3587786259542 27.87109375  8.19083969465649 27.7650669642857  C 8.02290076335878 27.6590401785714  7.87786259541985 27.51953125  7.75572519083969 27.3465401785714  C 7.63358778625954 27.1735491071429  7.57760814249364 26.9698660714286  7.58778625954198 26.7354910714286  C 7.59796437659033 26.5011160714286  7.68447837150127 26.2834821428571  7.84732824427481 26.0825892857143  L 11.0229007633588 22.0982142857143  L 11.0229007633588 16.8582589285714  L 6.88549618320611 19.4698660714286  L 5.32824427480916 24.4921875  C 5.19592875318066 24.9051339285714  4.94910941475827 25.1395089285714  4.58778625954198 25.1953125  C 4.2264631043257 25.2511160714286  3.91857506361323 25.13671875  3.66412213740458 24.8521205357143  C 3.40966921119593 24.5675223214286  3.34860050890585 24.2131696428571  3.48091603053435 23.7890625  L 4.3206106870229 21.1104910714286  L 1.48091603053435 22.8850446428571  C 1.24681933842239 23.0301339285714  1.00254452926209 23.06640625  0.748091603053435 22.9938616071429  C 0.493638676844784 22.9213169642857  0.295165394402036 22.7566964285714  0.152671755725191 22.5  C 0.0203562340966921 22.2433035714286  -0.0127226463104325 21.97265625  0.0534351145038168 21.6880580357143  C 0.119592875318066 21.4034598214286  0.269720101781171 21.1886160714286  0.50381679389313 21.0435267857143  L 3.34351145038168 19.2522321428571  L 0.793893129770992 18.6997767857143  C 0.498727735368957 18.6328125  0.28498727735369 18.4709821428571  0.152671755725191 18.2142857142857  C 0.0203562340966921 17.9575892857143  -0.0229007633587786 17.6981026785714  0.0229007633587786 17.4358258928571  C 0.0687022900763359 17.1735491071429  0.198473282442748 16.9503348214286  0.412213740458015 16.7661830357143  C 0.625954198473282 16.58203125  0.880407124681934 16.5234375  1.17557251908397 16.5904017857143  L 5.90839694656488 17.6283482142857  L 10.0458015267176 15  L 5.90839694656488 12.3716517857143  L 1.17557251908397 13.4095982142857  C 1.13486005089059 13.4207589285714  1.06870229007634 13.4263392857143  0.977099236641221 13.4263392857143  C 0.702290076335878 13.4263392857143  0.478371501272265 13.3258928571429  0.305343511450382 13.125  C 0.132315521628499 12.9241071428571  0.0356234096692112 12.7008928571429  0.0152671755725191 12.4553571428571  C -0.00508905852417296 12.2098214285714  0.0508905852417303 11.9698660714286  0.183206106870229 11.7354910714286  C 0.315521628498728 11.5011160714286  0.519083969465649 11.3560267857143  0.793893129770992 11.3002232142857  L 3.34351145038168 10.7477678571429  L 0.50381679389313 8.95647321428571  C 0.269720101781171 8.81138392857143  0.119592875318066 8.59654017857143  0.0534351145038168 8.31194196428571  C -0.0127226463104325 8.02734375  0.0203562340966921 7.75669642857143  0.152671755725191 7.5  C 0.28498727735369 7.24330357142857  0.483460559796438 7.07589285714285  0.748091603053435 6.99776785714286  C 1.01272264631043 6.91964285714286  1.25699745547074 6.95870535714285  1.48091603053435 7.11495535714286  L 4.3206106870229 8.88950892857143  L 3.48091603053435 6.2109375  C 3.34860050890585 5.78683035714285  3.40966921119593 5.43247767857143  3.66412213740458 5.14787946428571  C 3.91857506361323 4.86328125  4.2264631043257 4.74888392857142  4.58778625954198 4.8046875  C 4.94910941475827 4.86049107142857  5.19592875318066 5.09486607142857  5.32824427480916 5.5078125  L 6.88549618320611 10.5301339285714  L 11.0229007633588 13.1417410714286  L 11.0229007633588 7.90178571428571  L 7.84732824427481 3.91741071428571  C 7.68447837150127 3.71651785714286  7.59796437659033 3.49888392857143  7.58778625954198 3.26450892857143  C 7.57760814249364 3.03013392857143  7.63358778625954 2.82645089285714  7.75572519083969 2.65345982142857  C 7.87786259541985 2.48046875  8.02290076335878 2.34095982142857  8.19083969465649 2.23493303571429  C 8.3587786259542 2.12890625  8.5470737913486 2.09821428571428  8.75572519083969 2.14285714285714  C 8.96437659033079 2.1875  9.15012722646311 2.31026785714286  9.31297709923664 2.51116071428571  L 11.0229007633588 4.65401785714286  L 11.0229007633588 1.07142857142857  C 11.0229007633588 0.781249999999999  11.1195928753181 0.530133928571425  11.3129770992366 0.318080357142858  C 11.5063613231552 0.106026785714288  11.735368956743 0  12 0  C 12.264631043257 0  12.4936386768448 0.106026785714288  12.6870229007634 0.318080357142858  C 12.8804071246819 0.530133928571425  12.9770992366412 0.781249999999999  12.9770992366412 1.07142857142857  L 12.9770992366412 4.65401785714286  L 14.6870229007634 2.51116071428571  C 14.8498727735369 2.31026785714286  15.0356234096692 2.1875  15.2442748091603 2.14285714285714  C 15.4529262086514 2.09821428571428  15.6412213740458 2.12890625  15.8091603053435 2.23493303571429  C 15.9770992366412 2.34095982142857  16.1221374045802 2.48046875  16.2442748091603 2.65345982142857  C 16.3664122137405 2.82645089285714  16.4223918575064 3.03013392857143  16.412213740458 3.26450892857143  C 16.4020356234097 3.49888392857143  16.3155216284987 3.71651785714286  16.1526717557252 3.91741071428571  L 12.9770992366412 7.90178571428571  L 12.9770992366412 13.1417410714286  L 17.1145038167939 10.5301339285714  L 18.6717557251908 5.5078125  C 18.8040712468193 5.09486607142857  19.0508905852417 4.86049107142857  19.412213740458 4.8046875  C 19.7735368956743 4.74888392857142  20.0814249363868 4.86328125  20.3358778625954 5.14787946428571  C 20.5903307888041 5.43247767857143  20.6513994910941 5.78683035714285  20.5190839694656 6.2109375  L 19.6793893129771 8.88950892857143  L 22.5190839694656 7.11495535714286  C 22.7531806615776 6.96986607142857  22.9974554707379 6.93359375  23.2519083969466 7.00613839285714  C 23.5063613231552 7.07868303571428  23.704834605598 7.24330357142857  23.8473282442748 7.5  C 23.9796437659033 7.75669642857143  24.0127226463104 8.02734375  23.9465648854962 8.31194196428571  C 23.8804071246819 8.59654017857143  23.7302798982188 8.81138392857143  23.4961832061069 8.95647321428571  L 20.6564885496183 10.7477678571429  L 23.206106870229 11.3002232142857  C 23.4809160305344 11.3560267857143  23.6844783715013 11.5011160714286  23.8167938931298 11.7354910714286  C 23.9491094147583 11.9698660714286  24.0050890585242 12.2098214285714  23.9847328244275 12.4553571428571  C 23.9643765903308 12.7008928571429  23.8676844783715 12.9241071428571  23.6946564885496 13.125  C 23.5216284987277 13.3258928571429  23.2977099236641 13.4263392857143  23.0229007633588 13.4263392857143  C 22.9312977099237 13.4263392857143  22.8651399491094 13.4207589285714  22.824427480916 13.4095982142857  L 18.0916030534351 12.3716517857143  L 13.9541984732824 15  L 18.0916030534351 17.6283482142857  L 22.824427480916 16.5904017857143  C 23.1195928753181 16.5234375  23.3740458015267 16.58203125  23.587786259542 16.7661830357143  C 23.8015267175573 16.9503348214286  23.9312977099237 17.1735491071429  23.9770992366412 17.4358258928571  C 24.0229007633588 17.6981026785714  23.9796437659033 17.9575892857143  23.8473282442748 18.2142857142857  Z " fill-rule="nonzero" fill="#aaaaaa" stroke="none" transform="matrix(1 0 0 1 12 433 )" />
  </g>
</svg>