<?xml version="1.0" encoding="utf-8"?>
<svg version="1.1" xmlns:xlink="http://www.w3.org/1999/xlink" width="28px" height="24px" xmlns="http://www.w3.org/2000/svg">
  <g transform="matrix(1 0 0 1 -11 -505 )">
    <path d="M 12.9102792632204 7.8391959798995  C 13.5313923549218 7.27638190954774  13.8419489007724 6.5929648241206  13.8419489007724 5.78894472361809  C 13.8419489007724 4.98492462311558  13.5313923549218 4.30150753768844  12.9102792632204 3.73869346733668  C 12.2891661715191 3.17587939698492  11.5349574173104 2.89447236180904  10.6476530005942 2.89447236180904  C 9.760348583878 2.89447236180904  9.00613982966924 3.17587939698492  8.38502673796791 3.73869346733668  C 7.76391364626659 4.30150753768844  7.45335710041592 4.98492462311558  7.45335710041592 5.78894472361809  C 7.45335710041592 6.21105527638191  7.55872449990097 6.62814070351759  7.76945929887106 7.04020100502513  C 7.31471578530402 6.84924623115578  6.8544266191325 6.75376884422111  6.38859180035651 6.75376884422111  C 5.50128738364033 6.75376884422111  4.74707862943157 7.03517587939698  4.12596553773024 7.59798994974874  C 3.50485244602892 8.1608040201005  3.19429590017825 8.84422110552764  3.19429590017825 9.64824120603015  C 3.19429590017825 10.4522613065327  3.50485244602892 11.1356783919598  4.12596553773024 11.6984924623116  C 4.74707862943157 12.2613065326633  5.50128738364033 12.5427135678392  6.38859180035651 12.5427135678392  C 7.27589621707269 12.5427135678392  8.03010497128144 12.2613065326633  8.65121806298277 11.6984924623116  C 9.2723311546841 11.1356783919598  9.58288770053476 10.4522613065327  9.58288770053476 9.64824120603015  C 9.58288770053476 9.22613065326633  9.47752030104972 8.80904522613065  9.26678550207962 8.39698492462312  C 9.72152901564666 8.58793969849246  10.1818181818182 8.68341708542714  10.6476530005942 8.68341708542714  C 11.5349574173104 8.68341708542714  12.2891661715191 8.40201005025125  12.9102792632204 7.8391959798995  Z M 27.5258467023173 15.78391959799  C 27.8419489007724 16.1155778894472  28 16.321608040201  28 16.4020100502513  C 28 16.572864321608  27.7282630223807 16.9045226130653  27.184789067142 17.3969849246231  C 26.6413151119033 17.8894472361809  26.2753020400079 18.1356783919598  26.0867498514557 18.1356783919598  C 25.9869281045752 18.1356783919598  25.8288770053476 18.0552763819096  25.612596553773 17.894472361809  C 25.3963161021985 17.7336683417085  25.1938997821351 17.5678391959799  25.0053475935829 17.3969849246231  C 24.8167954050307 17.2261306532663  24.6032877797584 17.0251256281407  24.3648247177659 16.7939698492462  C 24.1263616557734 16.5628140703518  23.9904931669638 16.4321608040201  23.9572192513369 16.4020100502513  L 22.3600713012478 17.8492462311558  L 26.020202020202 21.1658291457286  C 26.3307585660527 21.4472361809045  26.486036838978 21.7889447236181  26.486036838978 22.1909547738693  C 26.486036838978 22.6130653266332  26.2697563874034 23.0201005025126  25.8371954842543 23.4120603015075  C 25.4046345811052 23.8040201005025  24.9554367201426 24  24.4896019013666 24  C 24.0459496930085 24  23.6688453159041 23.8592964824121  23.3582887700535 23.5778894472362  L 12.194890077243 13.4623115577889  C 10.2428203604674 14.7788944723618  8.21865715983363 15.4371859296482  6.12240047534165 15.4371859296482  C 4.31451772628243 15.4371859296482  2.84214695979402 14.9221105527638  1.70528817587641 13.891959798995  C 0.568429391958804 12.8618090452261  0 11.5276381909548  0 9.8894472361809  C 0 8.28140703517588  0.526836997425233 6.70854271356784  1.5805109922757 5.17085427135678  C 2.63418498712616 3.63316582914573  4.00950683303625 2.38693467336683  5.70647653000594 1.4321608040201  C 7.40344622697564 0.477386934673365  9.13923549217667 0  10.913844325609 0  C 12.7217270746683 0  14.1940978411567 0.51507537688442  15.3309566250743 1.54522613065327  C 16.4678154089919 2.57537688442211  17.0362448009507 3.90954773869347  17.0362448009507 5.54773869346734  C 17.0362448009507 7.44723618090452  16.3097643097643 9.28140703517588  14.8568033273916 11.0502512562814  L 20.7629233511586 16.4020100502513  L 22.3600713012478 14.9547738693467  C 22.3267973856209 14.9246231155779  22.1826104179045 14.8015075376884  21.9275103980986 14.5854271356784  C 21.6724103782927 14.3693467336683  21.4505842741137 14.1758793969849  21.2620320855615 14.0050251256281  C 21.0734798970093 13.8341708542714  20.8904733610616 13.6507537688442  20.7130124777184 13.4547738693467  C 20.5355515943751 13.2587939698492  20.4468211527035 13.1155778894472  20.4468211527035 13.0251256281407  C 20.4468211527035 12.8542713567839  20.7185581303228 12.5226130653266  21.2620320855615 12.0301507537688  C 21.8055060408002 11.5376884422111  22.1715191126956 11.2914572864322  22.3600713012478 11.2914572864322  C 22.5042582689642 11.2914572864322  22.6318082788671 11.3417085427136  22.7427213309566 11.4422110552764  C 22.8092691622103 11.5025125628141  23.0643691820162 11.7261306532663  23.5080213903743 12.1130653266332  C 23.9516735987324 12.5  24.4064171122995 12.8994974874372  24.8722519310755 13.3115577889447  C 25.3380867498515 13.7236180904523  25.8177857001386 14.1557788944724  26.311348781937 14.608040201005  C 26.8049118637354 15.0603015075377  27.2097445038622 15.4522613065327  27.5258467023173 15.78391959799  Z " fill-rule="nonzero" fill="#aaaaaa" stroke="none" transform="matrix(1 0 0 1 11 505 )" />
  </g>
</svg>