<?xml version="1.0" encoding="utf-8"?>
<svg version="1.1" xmlns:xlink="http://www.w3.org/1999/xlink" width="24px" height="24px" xmlns="http://www.w3.org/2000/svg">
  <g transform="matrix(1 0 0 1 -15 -644 )">
    <path d="M 24 11.8788990825688  C 24 7.22201834862386  21.3302752293578 3.18990825688073  17.4385321100917 1.23577981651376  C 17.2926605504587 1.16146788990826  17.1192660550459 1.26880733944954  17.1192660550459 1.43394495412844  L 17.1192660550459 3.20091743119266  C 17.1192660550459 3.35229357798165  17.1990825688073 3.49266055045872  17.3256880733945 3.57522935779816  C 17.9422018348624 3.96330275229358  18.5146788990826 4.42018348623853  19.0376146788991 4.94587155963303  C 19.9376146788991 5.84862385321101  20.6449541284404 6.89724770642202  21.1376146788991 8.06422018348624  C 21.6467889908257 9.27247706422018  21.905504587156 10.5550458715596  21.905504587156 11.8816513761468  C 21.905504587156 13.205504587156  21.6467889908257 14.4908256880734  21.1376146788991 15.6990825688073  C 20.6449541284404 16.8660550458716  19.9376146788991 17.9146788990826  19.0376146788991 18.8174311926605  C 18.1376146788991 19.7201834862385  17.0889908256881 20.4275229357798  15.9220183486239 20.9201834862385  C 14.7165137614679 21.4321100917431  13.4311926605505 21.6908256880734  12.1100917431193 21.6908256880734  C 10.7889908256881 21.6908256880734  9.50366972477064 21.4321100917431  8.29816513761468 20.9201834862385  C 7.13119266055046 20.4275229357798  6.08256880733945 19.7201834862385  5.18256880733945 18.8174311926605  C 4.28256880733945 17.9146788990826  3.57522935779816 16.8660550458716  3.08256880733945 15.6990825688073  C 2.57339449541285 14.4908256880734  2.31467889908257 13.2082568807339  2.31467889908257 11.8816513761468  C 2.31467889908257 10.5577981651376  2.57339449541285 9.27247706422018  3.08256880733945 8.06422018348624  C 3.57522935779816 6.89724770642202  4.28256880733945 5.84862385321101  5.18256880733945 4.94587155963303  C 5.70550458715596 4.42293577981651  6.27798165137615 3.96605504587156  6.89449541284404 3.57522935779816  C 7.02385321100918 3.4954128440367  7.10091743119266 3.35229357798165  7.10091743119266 3.20091743119266  L 7.10091743119266 1.43119266055046  C 7.10091743119266 1.26605504587156  6.92752293577982 1.16146788990826  6.78165137614679 1.23302752293578  C 2.93119266055046 3.17064220183486  0.275229357798164 7.13669724770642  0.220183486238533 11.7330275229358  C 0.143119266055045 18.305504587156  5.51834862385321 23.7660550458716  12.0880733944954 23.7798165137615  C 18.6660550458716 23.7935779816514  24 18.4596330275229  24 11.8788990825688  Z M 11 12.9908256880734  C 11.0091743119266 13.1119266055046  11.1082568807339 13.2110091743119  11.2293577981651 13.2110091743119  L 12.9908256880734 13.2110091743119  C 13.1119266055046 13.2110091743119  13.2110091743119 13.1119266055046  13 12.9908256880734  L 13 0.220183486238533  C 13.2110091743119 0.09908256880734  13.1119266055046 0  12.9908256880734 0  L 11.2293577981651 0  C 11.1082568807339 0  11.0091743119266 0.09908256880734  11 0.220183486238533  L 11 12.9908256880734  Z " fill-rule="nonzero" fill="#aaaaaa" stroke="none" transform="matrix(1 0 0 1 15 644 )" />
  </g>
</svg>