<?xml version="1.0" encoding="utf-8"?>
<svg version="1.1" xmlns:xlink="http://www.w3.org/1999/xlink" width="26px" height="28px" xmlns="http://www.w3.org/2000/svg">
  <g transform="matrix(1 0 0 1 -13 -571 )">
    <path d="M 11.6315789473684 13.7543859649123  C 11.6315789473684 14.5682792804524  12.2442419212842 15.2280701754386  13 15.2280701754386  C 13.7557580787158 15.2280701754386  14.3684210526316 14.5682792804524  14.3684210526316 13.7543859649123  C 14.3684210526316 12.9404926493722  13.7557580787158 12.280701754386  13 12.280701754386  C 12.2442419212842 12.280701754386  11.6315789473684 12.9404926493722  11.6315789473684 13.7543859649123  Z M 17.3333333333333 13.7543859649123  C 17.3333333333333 14.5682792804524  17.9459963072491 15.2280701754386  18.7017543859649 15.2280701754386  C 19.4575124646807 15.2280701754386  20.0701754385965 14.5682792804524  20.0701754385965 13.7543859649123  C 20.0701754385965 12.9404926493722  19.4575124646807 12.280701754386  18.7017543859649 12.280701754386  C 17.9459963072491 12.280701754386  17.3333333333333 12.9404926493722  17.3333333333333 13.7543859649123  Z M 5.92982456140351 13.7543859649123  C 5.92982456140351 14.5682792804524  6.54248753531926 15.2280701754386  7.29824561403509 15.2280701754386  C 8.05400369275091 15.2280701754386  8.66666666666667 14.5682792804524  8.66666666666667 13.7543859649123  C 8.66666666666667 12.9404926493722  8.05400369275091 12.280701754386  7.29824561403509 12.280701754386  C 6.54248753531926 12.280701754386  5.92982456140351 12.9404926493722  5.92982456140351 13.7543859649123  Z M 25.7719298245614 13.8157894736842  C 25.7804824561403 11.946052631579  25.4440789473684 10.1315789473684  24.7798245614035 8.42456140350878  C 24.1355263157895 6.77587719298246  23.2118421052632 5.29605263157895  22.0344298245614 4.025  C 20.8570175438597 2.75701754385965  19.4828947368421 1.75921052631579  17.9491228070175 1.06842105263158  C 16.3811403508772 0.359210526315789  14.7162280701754 0  13 0  L 12.9429824561403 0  C 11.215350877193 0.00921052631578808  9.54188596491228 0.377631578947369  7.96820175438596 1.10219298245614  C 6.44868421052632 1.80219298245614  5.0859649122807 2.79692982456141  3.91995614035088 4.06491228070175  C 2.75394736842105 5.33289473684211  1.83881578947368 6.80657894736842  1.20592105263158 8.44912280701755  C 0.550219298245613 10.15  0.219517543859649 11.9583333333333  0.228070175438595 13.8188596491228  C 0.236622807017545 15.9495614035088  0.709868421052632 18.0649122807018  1.59649122807017 19.9561403508772  L 1.59649122807017 24.6228070175439  C 1.59649122807017 25.4026315789474  2.18377192982456 26.0350877192983  2.9078947368421 26.0350877192983  L 7.24407894736842 26.0350877192983  C 9.00021929824562 26.9899122807018  10.9644736842105 27.4995614035088  12.9429824561403 27.5087719298246  L 13.002850877193 27.5087719298246  C 14.7105263157895 27.5087719298246  16.3668859649123 27.1526315789474  17.9263157894737 26.455701754386  C 19.4515350877193 25.771052631579  20.8228070175439 24.7885964912281  21.9973684210526 23.5328947368421  C 23.1747807017544 22.2771929824561  24.1013157894737 20.809649122807  24.7484649122807 19.1732456140351  C 25.4212719298246 17.4785087719298  25.7633771929824 15.6763157894737  25.7719298245614 13.8157894736842  Z M 23.6109649122807 13.8065789473684  C 23.5938596491228 16.8644736842105  22.4791666666667 19.7289473684211  20.472149122807 21.8719298245614  C 18.4736842105263 24.0026315789474  15.8223684210526 25.1754385964912  13 25.1754385964912  L 12.9515350877193 25.1754385964912  C 11.2324561403509 25.1662280701754  9.52478070175439 24.705701754386  8.01666666666667 23.8399122807018  L 7.77719298245614 23.7017543859649  L 3.76315789473684 23.7017543859649  L 3.76315789473684 19.3789473684211  L 3.63486842105263 19.1210526315789  C 2.83092105263158 17.4969298245614  2.40328947368421 15.6578947368421  2.39473684210526 13.8065789473684  C 2.38333333333333 10.7456140350877  3.46951754385965 7.87192982456141  5.46228070175438 5.70745614035088  C 7.45219298245614 3.54298245614035  10.1120614035088 2.34561403508772  12.9543859649123 2.33333333333333  L 13.002850877193 2.33333333333333  C 14.4282894736842 2.33333333333333  15.8109649122807 2.6311403508772  17.1138157894737 3.22061403508772  C 18.3853070175439 3.79473684210526  19.5256578947368 4.62061403508772  20.5063596491228 5.67675438596491  C 21.4842105263158 6.72982456140351  22.2539473684211 7.9609649122807  22.7870614035088 9.33026315789474  C 23.3401315789474 10.7486842105263  23.6166666666667 12.2530701754386  23.6109649122807 13.8065789473684  Z " fill-rule="nonzero" fill="#aaaaaa" stroke="none" transform="matrix(1 0 0 1 13 571 )" />
  </g>
</svg>