<?xml version="1.0" encoding="utf-8"?>
<svg version="1.1" xmlns:xlink="http://www.w3.org/1999/xlink" width="28px" height="24px" xmlns="http://www.w3.org/2000/svg">
  <g transform="matrix(1 0 0 1 -9 -286 )">
    <path d="M 10.3375 15.4028571428571  C 10.3375 11.0378571428571  14.46875 7.50214285714285  19.565625 7.50214285714285  C 19.75 7.50214285714285  19.934375 7.50857142857142  20.115625 7.51821428571429  C 19.353125 3.38142857142857  15.16875 0.218571428571428  10.11875 0.218571428571428  C 4.53125 0.218571428571428  0 4.095  0 8.87785714285714  C 0 11.4846428571429  1.3625 13.8342857142857  3.496875 15.4221428571429  C 3.66875 15.5475  3.78125 15.7532142857143  3.78125 15.9878571428571  C 3.78125 16.065  3.765625 16.1357142857143  3.746875 16.2096428571429  C 3.575 16.8621428571428  3.303125 17.9067857142857  3.290625 17.955  C 3.26875 18.0385714285714  3.2375 18.1221428571429  3.2375 18.2089285714286  C 3.2375 18.3985714285714  3.3875 18.5560714285714  3.575 18.5560714285714  C 3.646875 18.5560714285714  3.70625 18.5271428571428  3.76875 18.4917857142857  L 5.984375 17.1771428571428  C 6.15 17.0775  6.328125 17.0164285714286  6.521875 17.0164285714286  C 6.621875 17.0164285714286  6.721875 17.0325  6.81875 17.0614285714286  C 7.853125 17.3667857142857  8.96875 17.5371428571428  10.121875 17.5371428571428  C 10.309375 17.5371428571428  10.49375 17.5339285714286  10.678125 17.5242857142857  C 10.45625 16.8492857142857  10.3375 16.1389285714286  10.3375 15.4028571428571  Z M 12.14375 6.10714285714285  C 12.14375 5.34214285714286  12.75 4.72178571428571  13.49375 4.72178571428571  C 14.2375 4.72178571428571  14.84375 5.34214285714286  14.84375 6.10714285714285  C 14.84375 6.87214285714285  14.240625 7.4925  13.49375 7.4925  C 12.75 7.4925  12.14375 6.87214285714285  12.14375 6.10714285714285  Z M 8.096875 6.10714285714285  C 8.096875 6.87214285714285  7.490625 7.4925  6.746875 7.4925  C 6.003125 7.4925  5.396875 6.87214285714285  5.396875 6.10714285714285  C 5.396875 5.34214285714286  6 4.72178571428571  6.746875 4.72178571428571  C 7.49375 4.72178571428571  8.096875 5.34214285714286  8.096875 6.10714285714285  Z M 24.846875 21.3171428571428  C 24.85 21.1275  24.94375 20.9571428571428  25.084375 20.8510714285714  C 26.8625 19.5267857142857  27.996875 17.5725  27.996875 15.3964285714286  C 27.996875 11.4107142857143  24.221875 8.18035714285714  19.5625 8.18035714285714  C 14.90625 8.18035714285714  11.128125 11.4107142857143  11.128125 15.3964285714286  C 11.128125 19.3821428571429  14.903125 22.6125  19.5625 22.6125  C 20.525 22.6125  21.45625 22.4710714285714  22.315625 22.2171428571428  C 22.396875 22.1914285714286  22.478125 22.1785714285714  22.5625 22.1785714285714  C 22.725 22.1785714285714  22.871875 22.23  23.009375 22.3103571428571  L 24.85625 23.4032142857143  C 24.909375 23.4353571428571  24.959375 23.4578571428571  25.01875 23.4578571428571  C 25.09375 23.4578571428571  25.165625 23.4289285714286  25.21875 23.3742857142857  C 25.271875 23.3196428571429  25.3 23.2457142857143  25.3 23.1685714285714  C 25.3 23.0978571428571  25.271875 23.0271428571428  25.25625 22.9564285714286  C 25.246875 22.9178571428571  25.01875 22.0467857142857  24.875 21.5003571428571  C 24.859375 21.4392857142857  24.846875 21.3782142857143  24.846875 21.3171428571428  Z M 17.88125 13.0917857142857  C 17.88125 13.7282142857143  17.375 14.2457142857143  16.75625 14.2457142857143  C 16.134375 14.2457142857143  15.63125 13.7282142857143  15.63125 13.0917857142857  C 15.63125 12.4553571428571  16.134375 11.9378571428571  16.75625 11.9378571428571  C 17.378125 11.9378571428571  17.88125 12.4553571428571  17.88125 13.0917857142857  Z M 23.503125 13.0917857142857  C 23.5 13.7282142857143  22.996875 14.2457142857143  22.378125 14.2457142857143  C 21.75625 14.2457142857143  21.253125 13.7282142857143  21.253125 13.0917857142857  C 21.253125 12.4553571428571  21.75625 11.9378571428571  22.378125 11.9378571428571  C 23 11.9378571428571  23.503125 12.4553571428571  23.503125 13.0917857142857  Z " fill-rule="nonzero" fill="#aaaaaa" stroke="none" transform="matrix(1 0 0 1 9 286 )" />
  </g>
</svg>