<?xml version="1.0" encoding="utf-8"?>
<svg version="1.1" xmlns:xlink="http://www.w3.org/1999/xlink" width="26px" height="24px" xmlns="http://www.w3.org/2000/svg">
  <g transform="matrix(1 0 0 1 -36 -48 )">
    <path d="M 24.2589285714286 4.9733246584255  C 25.4196428571429 6.50878334417697  26 8.18217306441119  26 9.99349381912817  C 26 11.8048145738452  25.4196428571429 13.4782042940794  24.2589285714286 15.0136629798308  C 23.0982142857143 16.5491216655823  21.5215773809524 17.7618737800911  19.5290178571429 18.6519193233572  C 17.5364583333333 19.5419648666233  15.360119047619 19.9869876382563  13 19.9869876382563  C 12.3229166666667 19.9869876382563  11.6216517857143 19.9453480806766  10.8962053571429 19.8620689655172  C 8.98102678571429 21.6837996096291  6.75632440476191 22.9433962264151  4.22209821428571 23.6408588158751  C 3.74813988095238 23.786597267404  3.1968005952381 23.9011060507482  2.56808035714286 23.9843851659076  C 2.40364583333333 24.0052049446975  2.25613839285714 23.9583604424203  2.12555803571429 23.8438516590761  C 1.99497767857143 23.7293428757319  1.91034226190476 23.5783994795055  1.87165178571429 23.3910214703969  L 1.87165178571429 23.3754066363045  C 1.84263392857143 23.3337670787248  1.84021577380952 23.2713077423552  1.86439732142857 23.1880286271958  C 1.88857886904762 23.1047495120364  1.89825148809524 23.0527000650618  1.89341517857143 23.031880286272  C 1.88857886904762 23.0110605074821  1.91034226190476 22.9616135328562  1.95870535714286 22.8835393623943  L 2.04575892857143 22.7430058555628  C 2.04575892857143 22.7430058555628  2.0796130952381 22.6987638256344  2.14732142857143 22.6102797657775  C 2.21502976190476 22.5217957059206  2.25372023809524 22.4749512036435  2.26339285714286 22.469746258946  C 2.33110119047619 22.3864671437866  2.48102678571429 22.2068965517241  2.71316964285714 21.9310344827586  C 2.9453125 21.6551724137931  3.11216517857143 21.4573845152895  3.21372767857143 21.3376707872479  C 3.31529017857143 21.2179570592062  3.46521577380952 21.0123617436565  3.66350446428571 20.7208848405986  C 3.86179315476191 20.4294079375407  4.01897321428571 20.1639557579701  4.13504464285714 19.9245283018868  C 4.25111607142857 19.6851008458035  4.38169642857143 19.3780091086532  4.52678571428571 19.0032530904359  C 4.671875 18.6284970722186  4.79761904761905 18.2329212752115  4.90401785714286 17.8165256994144  C 3.38541666666667 16.8900455432661  2.18843005952381 15.7449577098243  1.31305803571429 14.3812621990891  C 0.437686011904762 13.0175666883539  0 11.5549772283669  0 9.99349381912817  C 0 8.6402081977879  0.343377976190476 7.34677944046845  1.03013392857143 6.11320754716981  C 1.71688988095238 4.87963565387118  2.640625 3.81522446324008  3.80133928571429 2.91997397527651  C 4.96205357142857 2.02472348731295  6.3452380952381 1.3142485361093  7.95089285714286 0.788549121665582  C 9.55654761904762 0.262849707221859  11.2395833333333 0  13 0  C 15.360119047619 0  17.5364583333333 0.445022771633051  19.5290178571429 1.33506831489915  C 21.5215773809524 2.22511385816526  23.0982142857143 3.43786597267404  24.2589285714286 4.9733246584255  Z " fill-rule="nonzero" fill="#027db4" stroke="none" fill-opacity="0.901960784313726" transform="matrix(1 0 0 1 36 48 )" />
  </g>
</svg>