<?xml version="1.0" encoding="utf-8"?>
<svg version="1.1" xmlns:xlink="http://www.w3.org/1999/xlink" width="40px" height="40px" xmlns="http://www.w3.org/2000/svg">
  <g transform="matrix(1 0 0 1 -300 -83 )">
    <path d="M 320 83  C 331.2 83  340 91.8  340 103  C 340 114.2  331.2 123  320 123  C 308.8 123  300 114.2  300 103  C 300 91.8  308.8 83  320 83  Z " fill-rule="nonzero" fill="#ffffff" stroke="none" />
    <path d="M 320 83.5  C 330.92 83.5  339.5 92.08  339.5 103  C 339.5 113.92  330.92 122.5  320 122.5  C 309.08 122.5  300.5 113.92  300.5 103  C 300.5 92.08  309.08 83.5  320 83.5  Z " stroke-width="1" stroke="#797979" fill="none" />
  </g>
</svg>