<?xml version="1.0" encoding="utf-8"?>
<svg version="1.1" xmlns:xlink="http://www.w3.org/1999/xlink" width="24px" height="28px" xmlns="http://www.w3.org/2000/svg">
  <g transform="matrix(1 0 0 1 -308 -87 )">
    <path d="M 12 26.75  C 12.1538461538462 26.75  12.2307692307692 26.6666666666667  12.2307692307692 26.5  C 12.2307692307692 26.3333333333333  12.1538461538462 26.25  12 26.25  C 11.4326923076923 26.25  10.9447115384615 26.0286458333333  10.5360576923077 25.5859375  C 10.1274038461538 25.1432291666667  9.92307692307692 24.6145833333333  9.92307692307692 24  C 9.92307692307692 23.8333333333333  9.84615384615385 23.75  9.69230769230769 23.75  C 9.53846153846154 23.75  9.46153846153846 23.8333333333333  9.46153846153846 24  C 9.46153846153846 24.7604166666667  9.70913461538462 25.4088541666667  10.2043269230769 25.9453125  C 10.6995192307692 26.4817708333333  11.2980769230769 26.75  12 26.75  Z M 6.46153846153846 9  C 6.46153846153846 14.5416666666667  5.18269230769231 18.875  2.625 22  L 21.375 22  C 18.8173076923077 18.875  17.5384615384615 14.5416666666667  17.5384615384615 9  C 17.5384615384615 8.46875  17.4230769230769 7.921875  17.1923076923077 7.359375  C 16.9615384615385 6.796875  16.6298076923077 6.26041666666666  16.1971153846154 5.75  C 15.7644230769231 5.23958333333333  15.1802884615385 4.8203125  14.4447115384615 4.4921875  C 13.7091346153846 4.1640625  12.8942307692308 4  12 4  C 11.1057692307692 4  10.2908653846154 4.1640625  9.55528846153846 4.4921875  C 8.81971153846154 4.8203125  8.23557692307692 5.23958333333333  7.80288461538461 5.75  C 7.37019230769231 6.26041666666666  7.03846153846154 6.796875  6.80769230769231 7.359375  C 6.57692307692308 7.921875  6.46153846153846 8.46875  6.46153846153846 9  Z M 22.6875 20.625  C 23.0817307692308 21.1041666666667  23.5192307692308 21.5625  24 22  C 24 22.5416666666667  23.8173076923077 23.0104166666667  23.4519230769231 23.40625  C 23.0865384615385 23.8020833333333  22.6538461538462 24  22.1538461538462 24  L 15.6923076923077 24  C 15.6923076923077 25.1041666666667  15.3317307692308 26.046875  14.6105769230769 26.828125  C 13.8894230769231 27.609375  13.0192307692308 28  12 28  C 10.9807692307692 28  10.1105769230769 27.609375  9.38942307692308 26.828125  C 8.66826923076923 26.046875  8.30769230769231 25.1041666666667  8.30769230769231 24  L 1.84615384615385 24  C 1.34615384615385 24  0.913461538461539 23.8020833333333  0.548076923076923 23.40625  C 0.182692307692308 23.0104166666667  0 22.5416666666667  0 22  C 0.480769230769231 21.5625  0.918269230769231 21.1041666666667  1.3125 20.625  C 1.70673076923077 20.1458333333333  2.11538461538462 19.5234375  2.53846153846154 18.7578125  C 2.96153846153846 17.9921875  3.31971153846154 17.1666666666667  3.61298076923077 16.28125  C 3.90625 15.3958333333333  4.14663461538462 14.3229166666667  4.33413461538462 13.0625  C 4.52163461538462 11.8020833333333  4.61538461538462 10.4479166666667  4.61538461538462 9  C 4.61538461538462 7.41666666666667  5.17788461538462 5.9453125  6.30288461538461 4.5859375  C 7.42788461538461 3.2265625  8.90384615384615 2.40104166666666  10.7307692307692 2.109375  C 10.6538461538462 1.91145833333333  10.6153846153846 1.70833333333333  10.6153846153846 1.5  C 10.6153846153846 1.08333333333333  10.75 0.729166666666666  11.0192307692308 0.4375  C 11.2884615384615 0.145833333333334  11.6153846153846 0  12 0  C 12.3846153846154 0  12.7115384615385 0.145833333333334  12.9807692307692 0.4375  C 13.25 0.729166666666666  13.3846153846154 1.08333333333333  13.3846153846154 1.5  C 13.3846153846154 1.70833333333333  13.3461538461538 1.91145833333333  13.2692307692308 2.109375  C 15.0961538461538 2.40104166666666  16.5721153846154 3.2265625  17.6971153846154 4.5859375  C 18.8221153846154 5.9453125  19.3846153846154 7.41666666666667  19.3846153846154 9  C 19.3846153846154 10.4479166666667  19.4783653846154 11.8020833333333  19.6658653846154 13.0625  C 19.8533653846154 14.3229166666667  20.09375 15.3958333333333  20.3870192307692 16.28125  C 20.6802884615385 17.1666666666667  21.0384615384615 17.9921875  21.4615384615385 18.7578125  C 21.8846153846154 19.5234375  22.2932692307692 20.1458333333333  22.6875 20.625  Z " fill-rule="nonzero" fill="#000000" stroke="none" transform="matrix(1 0 0 1 308 87 )" />
  </g>
</svg>