<?xml version="1.0" encoding="utf-8"?>
<svg version="1.1" xmlns:xlink="http://www.w3.org/1999/xlink" width="30px" height="25px" xmlns="http://www.w3.org/2000/svg">
  <defs>
    <mask fill="white" id="clip782">
      <path d="M 29.1127232142857 11.296875  C 29.7042410714286 12.6927083333333  30 14.4270833333333  30 16.5  C 30 18.2291666666667  29.2912946428571 20.578125  27.8738839285714 23.546875  C 27.8404017857143 23.6197916666667  27.7818080357143 23.7447916666667  27.6981026785714 23.921875  C 27.6143973214286 24.0989583333333  27.5390625 24.2552083333333  27.4720982142857 24.390625  C 27.4051339285714 24.5260416666667  27.3325892857143 24.640625  27.2544642857143 24.734375  C 27.1205357142857 24.9114583333333  26.9642857142857 25  26.7857142857143 25  C 26.6183035714286 25  26.4871651785714 24.9479166666667  26.3922991071429 24.84375  C 26.2974330357143 24.7395833333333  26.25 24.609375  26.25 24.453125  C 26.25 24.359375  26.2639508928571 24.2213541666667  26.2918526785714 24.0390625  C 26.3197544642857 23.8567708333333  26.3337053571429 23.734375  26.3337053571429 23.671875  C 26.3895089285714 22.9635416666667  26.4174107142857 22.3229166666667  26.4174107142857 21.75  C 26.4174107142857 20.6979166666667  26.3197544642857 19.7552083333333  26.1244419642857 18.921875  C 25.9291294642857 18.0885416666667  25.6584821428571 17.3671875  25.3125 16.7578125  C 24.9665178571429 16.1484375  24.5200892857143 15.6223958333333  23.9732142857143 15.1796875  C 23.4263392857143 14.7369791666667  22.8376116071429 14.375  22.20703125 14.09375  C 21.5764508928571 13.8125  20.8342633928571 13.5911458333333  19.98046875 13.4296875  C 19.1266741071429 13.2682291666667  18.2672991071429 13.15625  17.40234375 13.09375  C 16.5373883928571 13.03125  15.5580357142857 13  14.4642857142857 13  L 10.7142857142857 13  L 10.7142857142857 17  C 10.7142857142857 17.2708333333333  10.6082589285714 17.5052083333333  10.3962053571429 17.703125  C 10.1841517857143 17.9010416666667  9.93303571428572 18  9.64285714285714 18  C 9.35267857142857 18  9.1015625 17.9010416666667  8.88950892857143 17.703125  L 0.318080357142857 9.703125  C 0.106026785714286 9.50520833333333  0 9.27083333333333  0 9  C 0 8.72916666666667  0.106026785714286 8.49479166666666  0.318080357142857 8.296875  L 8.88950892857143 0.296874999999999  C 9.1015625 0.0989583333333321  9.35267857142857 0  9.64285714285714 0  C 9.93303571428572 0  10.1841517857143 0.0989583333333321  10.3962053571429 0.296874999999999  C 10.6082589285714 0.494791666666664  10.7142857142857 0.729166666666664  10.7142857142857 1  L 10.7142857142857 5  L 14.4642857142857 5  C 22.421875 5  27.3046875 7.09895833333333  29.1127232142857 11.296875  Z " fill-rule="evenodd" />
    </mask>
  </defs>
  <g transform="matrix(1 0 0 1 -358 -89 )">
    <path d="M 29.1127232142857 11.296875  C 29.7042410714286 12.6927083333333  30 14.4270833333333  30 16.5  C 30 18.2291666666667  29.2912946428571 20.578125  27.8738839285714 23.546875  C 27.8404017857143 23.6197916666667  27.7818080357143 23.7447916666667  27.6981026785714 23.921875  C 27.6143973214286 24.0989583333333  27.5390625 24.2552083333333  27.4720982142857 24.390625  C 27.4051339285714 24.5260416666667  27.3325892857143 24.640625  27.2544642857143 24.734375  C 27.1205357142857 24.9114583333333  26.9642857142857 25  26.7857142857143 25  C 26.6183035714286 25  26.4871651785714 24.9479166666667  26.3922991071429 24.84375  C 26.2974330357143 24.7395833333333  26.25 24.609375  26.25 24.453125  C 26.25 24.359375  26.2639508928571 24.2213541666667  26.2918526785714 24.0390625  C 26.3197544642857 23.8567708333333  26.3337053571429 23.734375  26.3337053571429 23.671875  C 26.3895089285714 22.9635416666667  26.4174107142857 22.3229166666667  26.4174107142857 21.75  C 26.4174107142857 20.6979166666667  26.3197544642857 19.7552083333333  26.1244419642857 18.921875  C 25.9291294642857 18.0885416666667  25.6584821428571 17.3671875  25.3125 16.7578125  C 24.9665178571429 16.1484375  24.5200892857143 15.6223958333333  23.9732142857143 15.1796875  C 23.4263392857143 14.7369791666667  22.8376116071429 14.375  22.20703125 14.09375  C 21.5764508928571 13.8125  20.8342633928571 13.5911458333333  19.98046875 13.4296875  C 19.1266741071429 13.2682291666667  18.2672991071429 13.15625  17.40234375 13.09375  C 16.5373883928571 13.03125  15.5580357142857 13  14.4642857142857 13  L 10.7142857142857 13  L 10.7142857142857 17  C 10.7142857142857 17.2708333333333  10.6082589285714 17.5052083333333  10.3962053571429 17.703125  C 10.1841517857143 17.9010416666667  9.93303571428572 18  9.64285714285714 18  C 9.35267857142857 18  9.1015625 17.9010416666667  8.88950892857143 17.703125  L 0.318080357142857 9.703125  C 0.106026785714286 9.50520833333333  0 9.27083333333333  0 9  C 0 8.72916666666667  0.106026785714286 8.49479166666666  0.318080357142857 8.296875  L 8.88950892857143 0.296874999999999  C 9.1015625 0.0989583333333321  9.35267857142857 0  9.64285714285714 0  C 9.93303571428572 0  10.1841517857143 0.0989583333333321  10.3962053571429 0.296874999999999  C 10.6082589285714 0.494791666666664  10.7142857142857 0.729166666666664  10.7142857142857 1  L 10.7142857142857 5  L 14.4642857142857 5  C 22.421875 5  27.3046875 7.09895833333333  29.1127232142857 11.296875  Z " fill-rule="nonzero" fill="#ffffff" stroke="none" transform="matrix(1 0 0 1 358 89 )" />
    <path d="M 29.1127232142857 11.296875  C 29.7042410714286 12.6927083333333  30 14.4270833333333  30 16.5  C 30 18.2291666666667  29.2912946428571 20.578125  27.8738839285714 23.546875  C 27.8404017857143 23.6197916666667  27.7818080357143 23.7447916666667  27.6981026785714 23.921875  C 27.6143973214286 24.0989583333333  27.5390625 24.2552083333333  27.4720982142857 24.390625  C 27.4051339285714 24.5260416666667  27.3325892857143 24.640625  27.2544642857143 24.734375  C 27.1205357142857 24.9114583333333  26.9642857142857 25  26.7857142857143 25  C 26.6183035714286 25  26.4871651785714 24.9479166666667  26.3922991071429 24.84375  C 26.2974330357143 24.7395833333333  26.25 24.609375  26.25 24.453125  C 26.25 24.359375  26.2639508928571 24.2213541666667  26.2918526785714 24.0390625  C 26.3197544642857 23.8567708333333  26.3337053571429 23.734375  26.3337053571429 23.671875  C 26.3895089285714 22.9635416666667  26.4174107142857 22.3229166666667  26.4174107142857 21.75  C 26.4174107142857 20.6979166666667  26.3197544642857 19.7552083333333  26.1244419642857 18.921875  C 25.9291294642857 18.0885416666667  25.6584821428571 17.3671875  25.3125 16.7578125  C 24.9665178571429 16.1484375  24.5200892857143 15.6223958333333  23.9732142857143 15.1796875  C 23.4263392857143 14.7369791666667  22.8376116071429 14.375  22.20703125 14.09375  C 21.5764508928571 13.8125  20.8342633928571 13.5911458333333  19.98046875 13.4296875  C 19.1266741071429 13.2682291666667  18.2672991071429 13.15625  17.40234375 13.09375  C 16.5373883928571 13.03125  15.5580357142857 13  14.4642857142857 13  L 10.7142857142857 13  L 10.7142857142857 17  C 10.7142857142857 17.2708333333333  10.6082589285714 17.5052083333333  10.3962053571429 17.703125  C 10.1841517857143 17.9010416666667  9.93303571428572 18  9.64285714285714 18  C 9.35267857142857 18  9.1015625 17.9010416666667  8.88950892857143 17.703125  L 0.318080357142857 9.703125  C 0.106026785714286 9.50520833333333  0 9.27083333333333  0 9  C 0 8.72916666666667  0.106026785714286 8.49479166666666  0.318080357142857 8.296875  L 8.88950892857143 0.296874999999999  C 9.1015625 0.0989583333333321  9.35267857142857 0  9.64285714285714 0  C 9.93303571428572 0  10.1841517857143 0.0989583333333321  10.3962053571429 0.296874999999999  C 10.6082589285714 0.494791666666664  10.7142857142857 0.729166666666664  10.7142857142857 1  L 10.7142857142857 5  L 14.4642857142857 5  C 22.421875 5  27.3046875 7.09895833333333  29.1127232142857 11.296875  Z " stroke-width="4" stroke="#555555" fill="none" transform="matrix(1 0 0 1 358 89 )" mask="url(#clip782)" />
  </g>
</svg>