<?xml version="1.0" encoding="utf-8"?>
<svg version="1.1" xmlns:xlink="http://www.w3.org/1999/xlink" width="5px" height="25px" xmlns="http://www.w3.org/2000/svg">
  <defs>
    <mask fill="white" id="clip793">
      <path d="M 2.5 0  C 3.89999999999998 0  5 1.09999999999999  5 2.5  C 5 3.90000000000001  3.89999999999998 5  2.5 5  C 1.10000000000002 5  0 3.90000000000001  0 2.5  C 0 1.09999999999999  1.10000000000002 0  2.5 0  Z M 2.5 10  C 3.89999999999998 10  5 11.1  5 12.5  C 5 13.9  3.89999999999998 15  2.5 15  C 1.10000000000002 15  0 13.9  0 12.5  C 0 11.1  1.10000000000002 10  2.5 10  Z M 5 22.5  C 5 23.9  3.89999999999998 25  2.5 25  C 1.10000000000002 25  0 23.9  0 22.5  C 0 21.1  1.10000000000002 20  2.5 20  C 3.89999999999998 20  5 21.1  5 22.5  Z " fill-rule="evenodd" />
    </mask>
  </defs>
  <g transform="matrix(1 0 0 1 -380 -37 )">
    <path d="M 2.5 0  C 3.89999999999998 0  5 1.09999999999999  5 2.5  C 5 3.90000000000001  3.89999999999998 5  2.5 5  C 1.10000000000002 5  0 3.90000000000001  0 2.5  C 0 1.09999999999999  1.10000000000002 0  2.5 0  Z M 2.5 10  C 3.89999999999998 10  5 11.1  5 12.5  C 5 13.9  3.89999999999998 15  2.5 15  C 1.10000000000002 15  0 13.9  0 12.5  C 0 11.1  1.10000000000002 10  2.5 10  Z M 5 22.5  C 5 23.9  3.89999999999998 25  2.5 25  C 1.10000000000002 25  0 23.9  0 22.5  C 0 21.1  1.10000000000002 20  2.5 20  C 3.89999999999998 20  5 21.1  5 22.5  Z " fill-rule="nonzero" fill="#000000" stroke="none" transform="matrix(1 0 0 1 380 37 )" />
    <path d="M 2.5 0  C 3.89999999999998 0  5 1.09999999999999  5 2.5  C 5 3.90000000000001  3.89999999999998 5  2.5 5  C 1.10000000000002 5  0 3.90000000000001  0 2.5  C 0 1.09999999999999  1.10000000000002 0  2.5 0  Z " stroke-width="2" stroke="#000000" fill="none" transform="matrix(1 0 0 1 380 37 )" mask="url(#clip793)" />
    <path d="M 2.5 10  C 3.89999999999998 10  5 11.1  5 12.5  C 5 13.9  3.89999999999998 15  2.5 15  C 1.10000000000002 15  0 13.9  0 12.5  C 0 11.1  1.10000000000002 10  2.5 10  Z " stroke-width="2" stroke="#000000" fill="none" transform="matrix(1 0 0 1 380 37 )" mask="url(#clip793)" />
    <path d="M 5 22.5  C 5 23.9  3.89999999999998 25  2.5 25  C 1.10000000000002 25  0 23.9  0 22.5  C 0 21.1  1.10000000000002 20  2.5 20  C 3.89999999999998 20  5 21.1  5 22.5  Z " stroke-width="2" stroke="#000000" fill="none" transform="matrix(1 0 0 1 380 37 )" mask="url(#clip793)" />
  </g>
</svg>