<?xml version="1.0" encoding="utf-8"?>
<svg version="1.1" xmlns:xlink="http://www.w3.org/1999/xlink" width="25px" height="23px" xmlns="http://www.w3.org/2000/svg">
  <g transform="matrix(1 0 0 1 -156 -443 )">
    <path d="M 17.822265625 2.95735677083333  C 16.1714099702381 2.26356336805555  14.3973214285714 1.91666666666667  12.5 1.91666666666667  C 10.6026785714286 1.91666666666667  8.82859002976191 2.26356336805555  7.177734375 2.95735677083333  C 5.52687872023809 3.65115017361111  4.21549479166667 4.58702256944444  3.24358258928571 5.76497395833333  C 2.27167038690476 6.94292534722222  1.78571428571429 8.21571180555555  1.78571428571429 9.58333333333333  C 1.78571428571429 10.7013888888889  2.11821056547619 11.7670355902778  2.783203125 12.7802734375  C 3.44819568452381 13.7935112847222  4.38523065476191 14.6694878472222  5.59430803571429 15.408203125  L 6.80803571428571 16.1569010416667  L 6.43136160714286 17.5944010416667  C 6.20814732142857 18.5028211805556  5.88262648809524 19.361328125  5.45479910714286 20.169921875  C 6.86848958333333 19.541015625  8.14732142857143 18.6875  9.29129464285714 17.609375  L 9.89118303571429 17.0403645833333  L 10.6863839285714 17.1302083333333  C 11.328125 17.2100694444444  11.9326636904762 17.25  12.5 17.25  C 14.3973214285714 17.25  16.1714099702381 16.9031032986111  17.822265625 16.2093098958333  C 19.4731212797619 15.5155164930556  20.7845052083333 14.5796440972222  21.7564174107143 13.4016927083333  C 22.7283296130952 12.2237413194444  23.2142857142857 10.9509548611111  23.2142857142857 9.58333333333333  C 23.2142857142857 8.21571180555555  22.7283296130952 6.94292534722222  21.7564174107143 5.76497395833333  C 20.7845052083333 4.58702256944444  19.4731212797619 3.65115017361111  17.822265625 2.95735677083333  Z M 23.3258928571429 4.76920572916667  C 24.4419642857143 6.24164496527778  25 7.84635416666667  25 9.58333333333333  C 25 11.3203125  24.4419642857143 12.9250217013889  23.3258928571429 14.3974609375  C 22.2098214285714 15.8699001736111  20.6938244047619 17.0328776041667  18.7779017857143 17.8863932291667  C 16.8619791666667 18.7399088541667  14.7693452380952 19.1666666666667  12.5 19.1666666666667  C 11.8489583333333 19.1666666666667  11.1746651785714 19.1267361111111  10.4771205357143 19.046875  C 8.63560267857143 20.7938368055556  6.49646577380952 22.0017361111111  4.05970982142857 22.6705729166667  C 3.60398065476191 22.8103298611111  3.07384672619048 22.9201388888889  2.46930803571429 23  L 2.39955357142857 23  C 2.26004464285714 23  2.13448660714286 22.9475911458333  2.02287946428571 22.8427734375  C 1.91127232142857 22.7379557291667  1.83686755952381 22.6006944444444  1.79966517857143 22.4309895833333  L 1.79966517857143 22.416015625  C 1.77176339285714 22.3760850694444  1.76943824404762 22.3161892361111  1.79268973214286 22.236328125  C 1.8159412202381 22.1564670138889  1.82524181547619 22.1065538194444  1.82059151785714 22.0865885416667  C 1.8159412202381 22.0666232638889  1.83686755952381 22.0192057291667  1.88337053571429 21.9443359375  L 1.96707589285714 21.8095703125  C 1.96707589285714 21.8095703125  1.99962797619048 21.7671440972222  2.06473214285714 21.6822916666667  C 2.12983630952381 21.5974392361111  2.16703869047619 21.5525173611111  2.17633928571429 21.5475260416667  C 2.24144345238095 21.4676649305556  2.38560267857143 21.2954644097222  2.60881696428571 21.0309244791667  C 2.83203125 20.7663845486111  2.99246651785714 20.5767144097222  3.09012276785714 20.4619140625  C 3.18777901785714 20.3471137152778  3.33193824404762 20.1499565972222  3.52260044642857 19.8704427083333  C 3.71326264880952 19.5909288194444  3.86439732142857 19.3363715277778  3.97600446428571 19.1067708333333  C 4.08761160714286 18.8771701388889  4.21316964285714 18.5826822916667  4.35267857142857 18.2233072916667  C 4.4921875 17.8639322916667  4.61309523809524 17.4845920138889  4.71540178571429 17.0852864583333  C 3.25520833333333 16.1968315972222  2.10425967261905 15.0987413194444  1.26255580357143 13.791015625  C 0.420851934523809 12.4832899305556  0 11.0807291666667  0 9.58333333333333  C 0 7.84635416666667  0.558035714285714 6.24164496527778  1.67410714285714 4.76920572916667  C 2.79017857142857 3.29676649305555  4.30617559523809 2.1337890625  6.22209821428571 1.2802734375  C 8.13802083333333 0.4267578125  10.2306547619048 0  12.5 0  C 14.7693452380952 0  16.8619791666667 0.4267578125  18.7779017857143 1.2802734375  C 20.6938244047619 2.1337890625  22.2098214285714 3.29676649305555  23.3258928571429 4.76920572916667  Z " fill-rule="nonzero" fill="#015478" stroke="none" transform="matrix(1 0 0 1 156 443 )" />
  </g>
</svg>