<?xml version="1.0" encoding="utf-8"?>
<svg version="1.1" xmlns:xlink="http://www.w3.org/1999/xlink" width="25px" height="18px" xmlns="http://www.w3.org/2000/svg">
  <g transform="matrix(1 0 0 1 -140 -498 )">
    <path d="M 24.633431085044 4.25065596542676  C 24.633431085044 3.63556104337089  23.8993768328446 3.25050162062047  23.3137829912023 3.5580490816484  L 19.7947214076246 5.400833461954  L 19.7947214076246 1.60024695169007  C 19.7947214076246 0.717610742398519  19.0056818181818 0  18.0351906158358 0  L 1.75953079178885 0  C 0.789039589442816 0  0 0.717610742398519  0 1.60024695169007  L 0 16.0024695169007  C 0 16.8851057261923  0.789039589442816 17.6027164685908  1.75953079178885 17.6027164685908  L 18.0351906158358 17.6027164685908  C 19.0056818181818 17.6027164685908  19.7947214076246 16.8851057261923  19.7947214076246 16.0024695169007  L 19.7947214076246 12.2018830066368  L 23.3137829912023 14.0446673869424  C 23.8993768328446 14.3522148479704  24.633431085044 13.9671554252199  24.633431085044 13.3545608890261  L 24.633431085044 4.25065596542676  Z M 17.8152492668622 2  L 17.8152492668622 15.8024386479395  L 2 15.8024386479395  L 2 2  L 17.8152492668622 2  Z M 22.6539589442815 5.97592221021763  L 22.6539589442815 11.6267942583732  L 19.7947214076246 10.1315635128878  L 19.7947214076246 7.47365334156505  L 22.6539589442815 5.97592221021763  Z M 3.73900293255132 4.80074085507023  C 3.73900293255132 4.91075783299892  3.83797653958944 5.00077172403149  3.95894428152493 5.00077172403149  L 7.03812316715543 5.00077172403149  C 7.15909090909091 5.00077172403149  7.25806451612903 4.91075783299892  7.25806451612903 4.80074085507023  L 7.25806451612903 3.60055564130267  C 7.25806451612903 3.49053866337398  7.15909090909091 3.40052477234141  7.03812316715543 3.40052477234141  L 3.95894428152493 3.40052477234141  C 3.83797653958944 3.40052477234141  3.73900293255132 3.49053866337398  3.73900293255132 3.60055564130267  L 3.73900293255132 4.80074085507023  Z " fill-rule="nonzero" fill="#015478" stroke="none" transform="matrix(1 0 0 1 140 498 )" />
  </g>
</svg>