<?xml version="1.0" encoding="utf-8"?>
<svg version="1.1" xmlns:xlink="http://www.w3.org/1999/xlink" width="26px" height="26px" xmlns="http://www.w3.org/2000/svg">
  <g transform="matrix(1 0 0 1 -330 -702 )">
    <path d="M 19.1276041666667 15.208984375  C 19.2630208333333 15.4741753472222  19.2855902777778 15.7478298611111  19.1953125 16.0299479166667  C 18.7777777777778 17.3953993055556  17.9991319444444 18.4956597222222  16.859375 19.3307291666667  C 15.7196180555556 20.1657986111111  14.4331597222222 20.5833333333333  13 20.5833333333333  C 11.5668402777778 20.5833333333333  10.2803819444444 20.1657986111111  9.140625 19.3307291666667  C 8.00086805555556 18.4956597222222  7.22222222222222 17.3953993055556  6.8046875 16.0299479166667  C 6.71440972222222 15.7478298611111  6.73697916666667 15.4741753472222  6.87239583333333 15.208984375  C 7.0078125 14.9437934027778  7.22222222222222 14.7660590277778  7.515625 14.67578125  C 7.79774305555556 14.5855034722222  8.07139756944444 14.6080729166667  8.33658854166667 14.7434895833333  C 8.60177951388889 14.87890625  8.77951388888889 15.0933159722222  8.86979166666667 15.38671875  C 9.15190972222222 16.2894965277778  9.673828125 17.0201822916667  10.435546875 17.5787760416667  C 11.197265625 18.1373697916667  12.0520833333333 18.4166666666667  13 18.4166666666667  C 13.9479166666667 18.4166666666667  14.802734375 18.1373697916667  15.564453125 17.5787760416667  C 16.326171875 17.0201822916667  16.8480902777778 16.2894965277778  17.1302083333333 15.38671875  C 17.2204861111111 15.0933159722222  17.4010416666667 14.87890625  17.671875 14.7434895833333  C 17.9427083333333 14.6080729166667  18.2191840277778 14.5855034722222  18.5013020833333 14.67578125  C 18.7834201388889 14.7660590277778  18.9921875 14.9437934027778  19.1276041666667 15.208984375  Z M 10.1985677083333 7.134765625  C 10.6217447916667 7.55794270833333  10.8333333333333 8.06857638888889  10.8333333333333 8.66666666666667  C 10.8333333333333 9.26475694444444  10.6217447916667 9.775390625  10.1985677083333 10.1985677083333  C 9.775390625 10.6217447916667  9.26475694444444 10.8333333333333  8.66666666666667 10.8333333333333  C 8.06857638888889 10.8333333333333  7.55794270833333 10.6217447916667  7.134765625 10.1985677083333  C 6.71158854166667 9.775390625  6.5 9.26475694444444  6.5 8.66666666666667  C 6.5 8.06857638888889  6.71158854166667 7.55794270833333  7.134765625 7.134765625  C 7.55794270833333 6.71158854166667  8.06857638888889 6.5  8.66666666666667 6.5  C 9.26475694444444 6.5  9.775390625 6.71158854166667  10.1985677083333 7.134765625  Z M 18.865234375 7.134765625  C 19.2884114583333 7.55794270833333  19.5 8.06857638888889  19.5 8.66666666666667  C 19.5 9.26475694444444  19.2884114583333 9.775390625  18.865234375 10.1985677083333  C 18.4420572916667 10.6217447916667  17.9314236111111 10.8333333333333  17.3333333333333 10.8333333333333  C 16.7352430555556 10.8333333333333  16.224609375 10.6217447916667  15.8014322916667 10.1985677083333  C 15.3782552083333 9.775390625  15.1666666666667 9.26475694444444  15.1666666666667 8.66666666666667  C 15.1666666666667 8.06857638888889  15.3782552083333 7.55794270833333  15.8014322916667 7.134765625  C 16.224609375 6.71158854166667  16.7352430555556 6.5  17.3333333333333 6.5  C 17.9314236111111 6.5  18.4420572916667 6.71158854166667  18.865234375 7.134765625  Z M 22.9700520833333 17.2063802083333  C 23.5455729166667 15.869140625  23.8333333333333 14.4670138888889  23.8333333333333 13  C 23.8333333333333 11.5329861111111  23.5455729166667 10.130859375  22.9700520833333 8.79361979166667  C 22.39453125 7.45638020833333  21.6243489583333 6.30533854166667  20.6595052083333 5.34049479166667  C 19.6946614583333 4.37565104166667  18.5436197916667 3.60546875  17.2063802083333 3.02994791666667  C 15.869140625 2.45442708333333  14.4670138888889 2.16666666666667  13 2.16666666666667  C 11.5329861111111 2.16666666666667  10.130859375 2.45442708333333  8.79361979166667 3.02994791666667  C 7.45638020833333 3.60546875  6.30533854166667 4.37565104166667  5.34049479166667 5.34049479166667  C 4.37565104166667 6.30533854166667  3.60546875 7.45638020833333  3.02994791666667 8.79361979166667  C 2.45442708333333 10.130859375  2.16666666666667 11.5329861111111  2.16666666666667 13  C 2.16666666666667 14.4670138888889  2.45442708333333 15.869140625  3.02994791666667 17.2063802083333  C 3.60546875 18.5436197916667  4.37565104166667 19.6946614583333  5.34049479166667 20.6595052083333  C 6.30533854166667 21.6243489583333  7.45638020833333 22.39453125  8.79361979166667 22.9700520833333  C 10.130859375 23.5455729166667  11.5329861111111 23.8333333333333  13 23.8333333333333  C 14.4670138888889 23.8333333333333  15.869140625 23.5455729166667  17.2063802083333 22.9700520833333  C 18.5436197916667 22.39453125  19.6946614583333 21.6243489583333  20.6595052083333 20.6595052083333  C 21.6243489583333 19.6946614583333  22.39453125 18.5436197916667  22.9700520833333 17.2063802083333  Z M 24.2565104166667 6.474609375  C 25.4188368055556 8.46636284722222  26 10.6414930555556  26 13  C 26 15.3585069444444  25.4188368055556 17.5336371527778  24.2565104166667 19.525390625  C 23.0941840277778 21.5171440972222  21.5171440972222 23.0941840277778  19.525390625 24.2565104166667  C 17.5336371527778 25.4188368055556  15.3585069444444 26  13 26  C 10.6414930555556 26  8.46636284722222 25.4188368055556  6.474609375 24.2565104166667  C 4.48285590277778 23.0941840277778  2.90581597222222 21.5171440972222  1.74348958333333 19.525390625  C 0.581163194444444 17.5336371527778  0 15.3585069444444  0 13  C 0 10.6414930555556  0.581163194444444 8.46636284722222  1.74348958333333 6.474609375  C 2.90581597222222 4.48285590277778  4.48285590277778 2.90581597222222  6.474609375 1.74348958333333  C 8.46636284722222 0.581163194444442  10.6414930555556 0  13 0  C 15.3585069444444 0  17.5336371527778 0.581163194444442  19.525390625 1.74348958333333  C 21.5171440972222 2.90581597222222  23.0941840277778 4.48285590277778  24.2565104166667 6.474609375  Z " fill-rule="nonzero" fill="#000000" stroke="none" transform="matrix(1 0 0 1 330 702 )" />
  </g>
</svg>