<?xml version="1.0" encoding="utf-8"?>
<svg version="1.1" xmlns:xlink="http://www.w3.org/1999/xlink" width="26px" height="26px" xmlns="http://www.w3.org/2000/svg">
  <g transform="matrix(1 0 0 1 -374 -702 )">
    <path d="M 387 703  C 393.72 703  399 708.28  399 715  C 399 721.72  393.72 727  387 727  C 380.28 727  375 721.72  375 715  C 375 708.28  380.28 703  387 703  Z " fill-rule="nonzero" fill="#ffffff" stroke="none" />
    <path d="M 387 703  C 393.72 703  399 708.28  399 715  C 399 721.72  393.72 727  387 727  C 380.28 727  375 721.72  375 715  C 375 708.28  380.28 703  387 703  Z " stroke-width="2" stroke="#333333" fill="none" />
  </g>
</svg>