<?xml version="1.0" encoding="utf-8"?>
<svg version="1.1" xmlns:xlink="http://www.w3.org/1999/xlink" width="26px" height="26px" xmlns="http://www.w3.org/2000/svg">
  <g transform="matrix(1 0 0 1 -23 -702 )">
    <path d="M 36 702  C 43.28 702  49 707.72  49 715  C 49 722.28  43.28 728  36 728  C 28.72 728  23 722.28  23 715  C 23 707.72  28.72 702  36 702  Z " fill-rule="nonzero" fill="#ffffff" stroke="none" />
    <path d="M 36 702.5  C 43 702.5  48.5 708  48.5 715  C 48.5 722  43 727.5  36 727.5  C 29 727.5  23.5 722  23.5 715  C 23.5 708  29 702.5  36 702.5  Z " stroke-width="1" stroke="#000000" fill="none" />
  </g>
</svg>