<?xml version="1.0" encoding="utf-8"?>
<svg version="1.1" xmlns:xlink="http://www.w3.org/1999/xlink" width="10px" height="10px" xmlns="http://www.w3.org/2000/svg">
  <g transform="matrix(1 0 0 1 -32 -710 )">
    <path d="M 2.32789212207239 7.67045454545455  C 2.59285545303998 7.93560606060606  2.72533711852378 8.25757575757576  2.72533711852378 8.63636363636364  C 2.72533711852378 9.01515151515152  2.59285545303998 9.33712121212121  2.32789212207239 9.60227272727273  C 2.0629287911048 9.86742424242424  1.7411876035013 10  1.36266855926189 10  C 0.984149515022475 10  0.662408327418973 9.86742424242424  0.397444996451384 9.60227272727273  C 0.132481665483795 9.33712121212121  0 9.01515151515152  0 8.63636363636364  C 0 8.25757575757576  0.132481665483795 7.93560606060606  0.397444996451384 7.67045454545455  C 0.662408327418973 7.40530303030303  0.984149515022475 7.27272727272727  1.36266855926189 7.27272727272727  C 1.7411876035013 7.27272727272727  2.0629287911048 7.40530303030303  2.32789212207239 7.67045454545455  Z M 5.78779276082328 7.33664772727273  C 6.10716820440028 8.02793560606061  6.29761059853324 8.75236742424242  6.35911994322214 9.50994318181818  C 6.36858291932813 9.64251893939394  6.32836527087769 9.7561553030303  6.23846699787083 9.85085227272727  C 6.15330021291696 9.95028409090909  6.04211024367164 10  5.90489709013485 10  L 4.94677075940383 10  C 4.82848355807902 10  4.72675656493967 9.9609375  4.64158977998581 9.8828125  C 4.55642299503194 9.8046875  4.50910811450201 9.70643939393939  4.49964513839603 9.58806818181818  C 4.39555240123019 8.50378787878788  3.95907262834161 7.57694128787879  3.19020581973031 6.80752840909091  C 2.421339011119 6.03811553030303  1.49515022474568 5.60132575757576  0.411639460610362 5.49715909090909  C 0.293352259285545 5.48768939393939  0.195173882185948 5.44034090909091  0.117104329311569 5.35511363636364  C 0.0390347764371895 5.26988636363636  0 5.16808712121212  0 5.04971590909091  L 0 4.09090909090909  C 0 3.95359848484848  0.049680624556423 3.84232954545454  0.149041873669269 3.75710227272727  C 0.229477170570144 3.67660984848485  0.331204163709487 3.63636363636364  0.454222853087296 3.63636363636364  L 0.489709013484741 3.63636363636364  C 1.24674710196357 3.69791666666667  1.97066477407145 3.88849431818182  2.66146202980837 4.20809659090909  C 3.3522592855453 4.52769886363636  3.96498698840785 4.95738636363636  4.49964513839603 5.49715909090909  C 5.03903477643719 6.03219696969697  5.46841731724627 6.64535984848485  5.78779276082328 7.33664772727273  Z M 9.14123491838183 5.96235795454545  C 9.64750414005205 7.09635416666667  9.93139342323161 8.28361742424242  9.99290276792051 9.52414772727273  C 10.0023657440265 9.65198863636364  9.95978235154956 9.76325757575758  9.86515259048971 9.85795454545455  C 9.77998580553584 9.95265151515152  9.67116158031701 10  9.53867991483321 10  L 8.52377572746629 10  C 8.40075703808848 10  8.29548142890939 9.95857007575758  8.20794889992903 9.87571022727273  C 8.12041637094866 9.79285037878788  8.07428436243199 9.69223484848485  8.06955287437899 9.57386363636364  C 8.01277501774308 8.55587121212121  7.77383487106695 7.58877840909091  7.3527324343506 6.67258522727273  C 6.93162999763426 5.75639204545455  6.38396025550036 4.9609375  5.7097232079489 4.28622159090909  C 5.03548616039745 3.61150568181818  4.24059616749468 3.06344696969697  3.3250532292406 2.64204545454545  C 2.40951029098651 2.22064393939394  1.44310385616276 1.97916666666667  0.42583392476934 1.91761363636364  C 0.307546723444523 1.91287878787879  0.207002602318429 1.86671401515151  0.124201561391057 1.77911931818182  C 0.0414005204636858 1.69152462121212  0 1.58854166666667  0 1.47017045454545  L 0 0.454545454545454  C 0 0.321969696969696  0.0473148805299267 0.213068181818182  0.14194464158978 0.127840909090909  C 0.227111426543648 0.0426136363636365  0.331204163709487 0  0.454222853087296 0  L 0.475514549325763 0  C 1.71516441920984 0.0615530303030287  2.90158504849775 0.345643939393938  4.0347764371895 0.852272727272727  C 5.16796782588124 1.35890151515151  6.17459190915543 2.05492424242424  7.05464868701207 2.94034090909091  C 7.93943695292169 3.82102272727273  8.63496569671162 4.82836174242424  9.14123491838183 5.96235795454545  Z " fill-rule="nonzero" fill="#000000" stroke="none" transform="matrix(1 0 0 1 32 710 )" />
  </g>
</svg>