<?xml version="1.0" encoding="utf-8"?>
<svg version="1.1" xmlns:xlink="http://www.w3.org/1999/xlink" width="20px" height="20px" xmlns="http://www.w3.org/2000/svg">
  <g transform="matrix(1 0 0 1 -94 -390 )">
    <path d="M 19.7623762376238 5.69554455445545  C 19.9183168316832 4.76485148514852  19.6064356435644 3.80693069306931  18.9381188118812 3.13613861386139  L 16.3019801980198 0.502475247524753  C 15.980198019802 0.18069306930693  15.5495049504951 0  15.0940594059406 0  C 14.6386138613861 0  14.2079207920792 0.178217821782178  13.8861386138614 0.502475247524753  L 11.0470297029703 3.33663366336634  C 10.7252475247525 3.65841584158416  10.5445544554455 4.09158415841584  10.5445544554455 4.5470297029703  C 10.5445544554455 5.00495049504951  10.7227722772277 5.43316831683168  11.0470297029703 5.75742574257426  L 13.2648514851485 7.97772277227723  C 12.7549504950495 9.16089108910891  12.0371287128713 10.220297029703  11.1262376237624 11.1287128712871  C 10.2178217821782 12.0420792079208  9.15594059405941 12.7623762376238  7.97772277227723 13.2722772277228  L 5.75990099009901 11.0519801980198  C 5.43811881188119 10.730198019802  5.00742574257426 10.549504950495  4.5519801980198 10.549504950495  C 4.0940594059406 10.549504950495  3.66584158415842 10.7277227722772  3.3440594059406 11.0519801980198  L 0.502475247524753 13.8861386138614  C 0.18069306930693 14.2079207920792  0 14.6410891089109  0 15.0965346534653  C 0 15.5544554455446  0.178217821782178 15.9826732673267  0.502475247524753 16.3069306930693  L 3.13613861386139 18.9405940594059  C 3.68564356435644 19.490099009901  4.44306930693069 19.8044554455446  5.22029702970297 19.8044554455446  C 5.38118811881188 19.8044554455446  5.53712871287129 19.7920792079208  5.69554455445545 19.7648514851485  C 8.97277227722772 19.2252475247525  12.2252475247525 17.480198019802  14.8514851485149 14.8564356435644  C 17.4752475247525 12.2277227722772  19.2178217821782 8.97524752475248  19.7623762376238 5.69554455445545  Z M 17.6782178217822 4.39108910891089  C 17.9455445544554 4.65841584158416  18.0693069306931 5.03465346534653  18.0074257425743 5.4009900990099  C 17.5247524752475 8.31930693069307  15.9554455445545 11.230198019802  13.5915841584158 13.5940594059406  C 11.2277227722772 15.9579207920792  8.31930693069307 17.5272277227723  5.4009900990099 18.009900990099  C 5.03465346534654 18.0717821782178  4.65841584158416 17.9480198019802  4.39108910891089 17.6831683168317  L 1.80445544554455 15.0965346534653  L 4.5470297029703 12.3514851485149  L 7.51237623762377 15.3217821782178  L 7.53465346534654 15.3440594059406  L 8.06930693069307 15.1460396039604  C 11.3539603960396 13.9356435643564  13.9331683168317 11.3564356435644  15.1410891089109 8.07178217821782  L 15.3391089108911 7.53712871287128  L 12.3490099009901 4.54950495049505  L 15.0915841584159 1.80445544554455  L 17.6782178217822 4.39108910891089  Z " fill-rule="nonzero" fill="#000000" stroke="none" transform="matrix(1 0 0 1 94 390 )" />
  </g>
</svg>