<?xml version="1.0" encoding="utf-8"?>
<svg version="1.1" xmlns:xlink="http://www.w3.org/1999/xlink" width="24px" height="20px" xmlns="http://www.w3.org/2000/svg">
  <g transform="matrix(1 0 0 1 -353 -26 )">
    <path d="M 23.5725653656688 5.06373626373626  C 23.5725653656688 3.89802197802198  22.5958317544524 2.95384615384615  21.3899204244032 2.95384615384615  L 17.6794240242516 2.95384615384615  L 16.795452823039 0.559120879120879  C 16.6699507389163 0.224175824175823  16.3425539977264 0  15.9715043577113 0  L 7.60106100795756 0  C 7.23273967411899 0  6.90261462675256 0.224175824175823  6.77984084880637 0.559120879120879  L 5.89314134141721 2.95384615384615  L 2.18264494126563 2.95384615384615  C 0.976733611216368 2.95384615384615  0 3.89802197802198  0 5.06373626373626  L 0 17.0901098901099  C 0 18.2558241758242  0.976733611216368 19.2  2.18264494126563 19  L 21.3899204244032 19  C 22.5958317544524 19.2  23.5725653656688 18.2558241758242  23.5725653656688 17.0901098901099  L 23.5725653656688 5.06373626373626  Z M 21.6081849185297 5.06373626373626  L 21.6081849185297 17.0901098901099  C 21.6081849185297 17.2061538461539  21.5099658961728 17.3010989010989  21.3899204244032 17  L 2.18264494126563 17  C 2.06259946949602 17.3010989010989  1.96438044713907 17.2061538461539  2 17.0901098901099  L 2 5.06373626373626  C 1.96438044713907 4.94769230769231  2.06259946949602 4.85274725274725  2.18264494126563 4.85274725274725  L 7.2763925729443 4.85274725274725  L 7.74293292913983 3.59208791208791  L 8.36771504357711 1.8989010989011  L 15.2021220159151 1.8989010989011  L 15.8269041303524 3.59208791208791  L 16.2934444865479 4.85274725274725  L 21.3899204244032 4.85274725274725  C 21.5099658961728 4.85274725274725  21.6081849185297 4.94769230769231  21.6081849185297 5.06373626373626  Z M 16.1515725653657 10.7604395604396  C 16.1515725653657 8.42901098901099  14.1981053429329 6.54065934065934  11.7862826828344 6.54065934065934  C 9.37446002273589 6.54065934065934  7.42099280030315 8.42901098901099  7.42099280030315 10.7604395604396  C 7.42099280030315 13.0918681318681  9.37446002273589 14.9802197802198  11.7862826828344 14.9802197802198  C 14.1981053429329 14.9802197802198  16.1515725653657 13.0918681318681  16.1515725653657 10.7604395604396  Z M 14.4054566123532 10.7604395604396  C 14.4054566123532 12.1582417582418  13.2322849564229 13.2923076923077  11.7862826828344 13.2923076923077  C 10.3402804092459 13.2923076923077  9.16710875331565 12.1582417582418  9.16710875331565 10.7604395604396  C 9.16710875331565 9.36263736263736  10.3402804092459 8.22857142857143  11.7862826828344 8.22857142857143  C 13.2322849564229 8.22857142857143  14.4054566123532 9.36263736263736  14.4054566123532 10.7604395604396  Z " fill-rule="nonzero" fill="#ffffff" stroke="none" transform="matrix(1 0 0 1 353 26 )" />
  </g>
</svg>