<?xml version="1.0" encoding="utf-8"?>
<svg version="1.1" xmlns:xlink="http://www.w3.org/1999/xlink" width="5px" height="5px" xmlns="http://www.w3.org/2000/svg">
  <g transform="matrix(1 0 0 1 -306 -57 )">
    <path d="M 308.5 58  C 309.34 58  310 58.66  310 59.5  C 310 60.34  309.34 61  308.5 61  C 307.66 61  307 60.34  307 59.5  C 307 58.66  307.66 58  308.5 58  Z " fill-rule="nonzero" fill="#ffffff" stroke="none" />
    <path d="M 308.5 58  C 309.34 58  310 58.66  310 59.5  C 310 60.34  309.34 61  308.5 61  C 307.66 61  307 60.34  307 59.5  C 307 58.66  307.66 58  308.5 58  Z " stroke-width="2" stroke="#ffffff" fill="none" />
  </g>
</svg>