<?xml version="1.0" encoding="utf-8"?>
<svg version="1.1" xmlns:xlink="http://www.w3.org/1999/xlink" width="60px" height="60px" xmlns="http://www.w3.org/2000/svg">
  <g transform="matrix(1 0 0 1 -109 0 )">
    <path d="M 110 5  A 4 4 0 0 1 114 1 L 164 1  A 4 4 0 0 1 168 5 L 168 55  A 4 4 0 0 1 164 59 L 114 59  A 4 4 0 0 1 110 55 L 110 5  Z " fill-rule="nonzero" fill="#ffffff" stroke="none" />
    <path d="M 109.5 5  A 4.5 4.5 0 0 1 114 0.5 L 164 0.5  A 4.5 4.5 0 0 1 168.5 5 L 168.5 55  A 4.5 4.5 0 0 1 164 59.5 L 114 59.5  A 4.5 4.5 0 0 1 109.5 55 L 109.5 5  Z " stroke-width="1" stroke-dasharray="9,4" stroke="#aaaaaa" fill="none" stroke-dashoffset="0.5" />
  </g>
</svg>