<?xml version="1.0" encoding="utf-8"?>
<svg version="1.1" xmlns:xlink="http://www.w3.org/1999/xlink" width="24px" height="25px" xmlns="http://www.w3.org/2000/svg">
  <g transform="matrix(1 0 0 1 -127 -18 )">
    <path d="M 10.4545454545455 0.273321449792029  C 10.4545454545455 0.0911071499306857  10.5456526044761 0  10.7278669043375 0  L 12.7777777777778 0  C 12.9599920776391 0  13.0510992275698 0.0911071499306857  13 0.273321449792029  L 13 24.3256090314914  C 13.0510992275698 24.5078233313528  12.9599920776391 24.5989304812834  12.7777777777778 24.5989304812834  L 10.7278669043375 24.5989304812834  C 10.5456526044761 24.5989304812834  10.4545454545455 24.5078233313528  10.4545454545455 24.3256090314914  L 10.4545454545455 0.273321449792029  Z M 0 11.2745098039216  C 0 11.0922955040602  0.0911071499306857 11.0011883541295  0.273321449792032 11  L 23.2323232323232 11  C 23.4145375321846 11.0011883541295  23.5056446821153 11.0922955040602  23.5056446821153 11.2745098039216  L 23.5056446821153 13.3244206773618  C 23.5056446821153 13.5066349772232  23.4145375321846 13.5977421271539  23.2323232323232 13.5977421271539  L 0.273321449792032 13.5977421271539  C 0.0911071499306857 13.5977421271539  0 13.5066349772232  0 13.3244206773618  L 0 11.2745098039216  Z " fill-rule="nonzero" fill="#aaaaaa" stroke="none" transform="matrix(1 0 0 1 127 18 )" />
  </g>
</svg>