<?xml version="1.0" encoding="utf-8"?>
<svg version="1.1" xmlns:xlink="http://www.w3.org/1999/xlink" width="25px" height="28px" xmlns="http://www.w3.org/2000/svg">
  <defs>
    <mask fill="white" id="clip792">
      <path d="M 23.3258928571429 5.80221210149642  C 24.4419642857143 7.59358056820646  25 9.54586857514639  25 11.6590761223162  C 25 13.772283669486  24.4419642857143 15.7245716764259  23.3258928571429 17.515940143136  C 22.2098214285714 19.307308609846  20.6938244047619 20.7221860767729  18.7779017857143 21.7605725439167  C 16.8619791666667 22.7989590110605  14.7693452380952 23.3181522446324  12.5 23.3181522446324  C 11.8489583333333 23.3181522446324  11.1746651785714 23.2695727607894  10.4771205357143 23.1724137931034  C 8.63560267857143 25.297766211234  6.49646577380952 26.7672955974843  4.05970982142857 27.5810019518543  C 3.60398065476191 27.7510301453047  3.07384672619048 27.8846237258729  2.46930803571429 27.9817826935589  C 2.31119791666667 28.0060724354804  2.16936383928571 27.951420516157  2.04380580357143 27.8178269355888  C 1.91824776785714 27.6842333550206  1.83686755952381 27.5081327260898  1.79966517857143 27.2895250487964  L 1.79966517857143 27.2713077423552  C 1.77176339285714 27.2227282585123  1.76943824404762 27.1498590327478  1.79268973214286 27.0527000650618  C 1.8159412202381 26.9555410973758  1.82524181547619 26.8948167425721  1.82059151785714 26.8705270006506  C 1.8159412202381 26.8462372587291  1.83686755952381 26.7885491216656  1.88337053571429 26.69746258946  L 1.96707589285714 26.5335068314899  C 1.96707589285714 26.5335068314899  1.99962797619048 26.4818911299067  2.06473214285714 26.3786597267404  C 2.12983630952381 26.2754283235741  2.16703869047619 26.2207764042507  2.17633928571429 26.2147039687703  C 2.24144345238095 26.1175450010844  2.38560267857143 25.9080459770115  2.60881696428571 25.5862068965517  C 2.83203125 25.264367816092  2.99246651785714 25.0336152678378  3.09012276785714 24.8939492517892  C 3.18777901785714 24.7542832357406  3.33193824404762 24.5144220342659  3.52260044642857 24.174365647365  C 3.71326264880952 23.8343092604641  3.86439732142857 23.5246150509651  3.97600446428571 23.2452830188679  C 4.08761160714286 22.9659509867708  4.21316964285714 22.6076772934288  4.35267857142857 22.1704619388419  C 4.4921875 21.733246584255  4.61309523809524 21.2717414877467  4.71540178571429 20.7859466493169  C 3.25520833333333 19.7050531338104  2.10425967261905 18.3691173281284  1.26255580357143 16.7781392322707  C 0.420851934523809 15.1871611364129  0 13.4808067664281  0 11.6590761223162  C 0 10.0802428974192  0.330171130952381 8.57124268054652  0.990513392857143 7.13207547169811  C 1.6508556547619 5.69290826284971  2.5390625 4.45109520711342  3.65513392857143 3.40663630448926  C 4.77120535714286 2.3621774018651  6.10119047619048 1.53328995879418  7.64508928571429 0.919973975276513  C 9.1889880952381 0.306657991758835  10.8072916666667 0  12.5 0  C 14.7693452380952 0  16.8619791666667 0.519193233571893  18.7779017857143 1.55757970071568  C 20.6938244047619 2.59596616785947  22.2098214285714 4.01084363478638  23.3258928571429 5.80221210149642  Z " fill-rule="evenodd" />
    </mask>
  </defs>
  <g transform="matrix(1 0 0 1 -36 -684 )">
    <path d="M 23.3258928571429 5.80221210149642  C 24.4419642857143 7.59358056820646  25 9.54586857514639  25 11.6590761223162  C 25 13.772283669486  24.4419642857143 15.7245716764259  23.3258928571429 17.515940143136  C 22.2098214285714 19.307308609846  20.6938244047619 20.7221860767729  18.7779017857143 21.7605725439167  C 16.8619791666667 22.7989590110605  14.7693452380952 23.3181522446324  12.5 23.3181522446324  C 11.8489583333333 23.3181522446324  11.1746651785714 23.2695727607894  10.4771205357143 23.1724137931034  C 8.63560267857143 25.297766211234  6.49646577380952 26.7672955974843  4.05970982142857 27.5810019518543  C 3.60398065476191 27.7510301453047  3.07384672619048 27.8846237258729  2.46930803571429 27.9817826935589  C 2.31119791666667 28.0060724354804  2.16936383928571 27.951420516157  2.04380580357143 27.8178269355888  C 1.91824776785714 27.6842333550206  1.83686755952381 27.5081327260898  1.79966517857143 27.2895250487964  L 1.79966517857143 27.2713077423552  C 1.77176339285714 27.2227282585123  1.76943824404762 27.1498590327478  1.79268973214286 27.0527000650618  C 1.8159412202381 26.9555410973758  1.82524181547619 26.8948167425721  1.82059151785714 26.8705270006506  C 1.8159412202381 26.8462372587291  1.83686755952381 26.7885491216656  1.88337053571429 26.69746258946  L 1.96707589285714 26.5335068314899  C 1.96707589285714 26.5335068314899  1.99962797619048 26.4818911299067  2.06473214285714 26.3786597267404  C 2.12983630952381 26.2754283235741  2.16703869047619 26.2207764042507  2.17633928571429 26.2147039687703  C 2.24144345238095 26.1175450010844  2.38560267857143 25.9080459770115  2.60881696428571 25.5862068965517  C 2.83203125 25.264367816092  2.99246651785714 25.0336152678378  3.09012276785714 24.8939492517892  C 3.18777901785714 24.7542832357406  3.33193824404762 24.5144220342659  3.52260044642857 24.174365647365  C 3.71326264880952 23.8343092604641  3.86439732142857 23.5246150509651  3.97600446428571 23.2452830188679  C 4.08761160714286 22.9659509867708  4.21316964285714 22.6076772934288  4.35267857142857 22.1704619388419  C 4.4921875 21.733246584255  4.61309523809524 21.2717414877467  4.71540178571429 20.7859466493169  C 3.25520833333333 19.7050531338104  2.10425967261905 18.3691173281284  1.26255580357143 16.7781392322707  C 0.420851934523809 15.1871611364129  0 13.4808067664281  0 11.6590761223162  C 0 10.0802428974192  0.330171130952381 8.57124268054652  0.990513392857143 7.13207547169811  C 1.6508556547619 5.69290826284971  2.5390625 4.45109520711342  3.65513392857143 3.40663630448926  C 4.77120535714286 2.3621774018651  6.10119047619048 1.53328995879418  7.64508928571429 0.919973975276513  C 9.1889880952381 0.306657991758835  10.8072916666667 0  12.5 0  C 14.7693452380952 0  16.8619791666667 0.519193233571893  18.7779017857143 1.55757970071568  C 20.6938244047619 2.59596616785947  22.2098214285714 4.01084363478638  23.3258928571429 5.80221210149642  Z " fill-rule="nonzero" fill="#ffffff" stroke="none" transform="matrix(1 0 0 1 36 684 )" />
    <path d="M 23.3258928571429 5.80221210149642  C 24.4419642857143 7.59358056820646  25 9.54586857514639  25 11.6590761223162  C 25 13.772283669486  24.4419642857143 15.7245716764259  23.3258928571429 17.515940143136  C 22.2098214285714 19.307308609846  20.6938244047619 20.7221860767729  18.7779017857143 21.7605725439167  C 16.8619791666667 22.7989590110605  14.7693452380952 23.3181522446324  12.5 23.3181522446324  C 11.8489583333333 23.3181522446324  11.1746651785714 23.2695727607894  10.4771205357143 23.1724137931034  C 8.63560267857143 25.297766211234  6.49646577380952 26.7672955974843  4.05970982142857 27.5810019518543  C 3.60398065476191 27.7510301453047  3.07384672619048 27.8846237258729  2.46930803571429 27.9817826935589  C 2.31119791666667 28.0060724354804  2.16936383928571 27.951420516157  2.04380580357143 27.8178269355888  C 1.91824776785714 27.6842333550206  1.83686755952381 27.5081327260898  1.79966517857143 27.2895250487964  L 1.79966517857143 27.2713077423552  C 1.77176339285714 27.2227282585123  1.76943824404762 27.1498590327478  1.79268973214286 27.0527000650618  C 1.8159412202381 26.9555410973758  1.82524181547619 26.8948167425721  1.82059151785714 26.8705270006506  C 1.8159412202381 26.8462372587291  1.83686755952381 26.7885491216656  1.88337053571429 26.69746258946  L 1.96707589285714 26.5335068314899  C 1.96707589285714 26.5335068314899  1.99962797619048 26.4818911299067  2.06473214285714 26.3786597267404  C 2.12983630952381 26.2754283235741  2.16703869047619 26.2207764042507  2.17633928571429 26.2147039687703  C 2.24144345238095 26.1175450010844  2.38560267857143 25.9080459770115  2.60881696428571 25.5862068965517  C 2.83203125 25.264367816092  2.99246651785714 25.0336152678378  3.09012276785714 24.8939492517892  C 3.18777901785714 24.7542832357406  3.33193824404762 24.5144220342659  3.52260044642857 24.174365647365  C 3.71326264880952 23.8343092604641  3.86439732142857 23.5246150509651  3.97600446428571 23.2452830188679  C 4.08761160714286 22.9659509867708  4.21316964285714 22.6076772934288  4.35267857142857 22.1704619388419  C 4.4921875 21.733246584255  4.61309523809524 21.2717414877467  4.71540178571429 20.7859466493169  C 3.25520833333333 19.7050531338104  2.10425967261905 18.3691173281284  1.26255580357143 16.7781392322707  C 0.420851934523809 15.1871611364129  0 13.4808067664281  0 11.6590761223162  C 0 10.0802428974192  0.330171130952381 8.57124268054652  0.990513392857143 7.13207547169811  C 1.6508556547619 5.69290826284971  2.5390625 4.45109520711342  3.65513392857143 3.40663630448926  C 4.77120535714286 2.3621774018651  6.10119047619048 1.53328995879418  7.64508928571429 0.919973975276513  C 9.1889880952381 0.306657991758835  10.8072916666667 0  12.5 0  C 14.7693452380952 0  16.8619791666667 0.519193233571893  18.7779017857143 1.55757970071568  C 20.6938244047619 2.59596616785947  22.2098214285714 4.01084363478638  23.3258928571429 5.80221210149642  Z " stroke-width="2" stroke="#000000" fill="none" transform="matrix(1 0 0 1 36 684 )" mask="url(#clip792)" />
  </g>
</svg>