<?xml version="1.0" encoding="utf-8"?>
<svg version="1.1" xmlns:xlink="http://www.w3.org/1999/xlink" width="20px" height="20px" xmlns="http://www.w3.org/2000/svg">
  <g transform="matrix(1 0 0 1 -376 -51 )">
    <path d="M 20 10  C 20 4.47767857142858  15.5223214285714 0  10 0  C 4.47767857142858 0  0 4.47767857142858  0 10  C 0 15.5223214285714  4.47767857142858 20  10 20  C 15.5223214285714 20  20 15.5223214285714  20 10  Z M 18.3035714285714 10  C 18.3035714285714 14.5848214285714  14.5848214285714 18.3035714285714  10 18.3035714285714  C 5.41517857142858 18.3035714285714  1.69642857142857 14.5848214285714  1.69642857142857 10  C 1.69642857142857 5.41517857142858  5.41517857142858 1.69642857142857  10 1.69642857142857  C 14.5848214285714 1.69642857142857  18.3035714285714 5.41517857142858  18.3035714285714 10  Z M 14.2857142857143 9.46428571428572  C 14.2857142857143 9.36607142857144  14.2053571428571 9.28571428571428  14.1071428571429 9.28571428571428  L 10.7142857142857 9.28571428571428  L 10.7142857142857 5.89285714285714  C 10.7142857142857 5.79464285714286  10.6339285714286 5.71428571428572  10.5357142857143 5.71428571428572  L 9.46428571428572 5.71428571428572  C 9.36607142857144 5.71428571428572  9.28571428571428 5.79464285714286  9.28571428571428 5.89285714285714  L 9.28571428571428 9.28571428571428  L 5.89285714285714 9.28571428571428  C 5.79464285714286 9.28571428571428  5.71428571428572 9.36607142857144  5.71428571428572 9.46428571428572  L 5.71428571428572 10.5357142857143  C 5.71428571428572 10.6339285714286  5.79464285714286 10.7142857142857  5.89285714285714 10.7142857142857  L 9.28571428571428 10.7142857142857  L 9.28571428571428 14.1071428571429  C 9.28571428571428 14.2053571428571  9.36607142857144 14.2857142857143  9.46428571428572 14.2857142857143  L 10.5357142857143 14.2857142857143  C 10.6339285714286 14.2857142857143  10.7142857142857 14.2053571428571  10.7142857142857 14.1071428571429  L 10.7142857142857 10.7142857142857  L 14.1071428571429 10.7142857142857  C 14.2053571428571 10.7142857142857  14.2857142857143 10.6339285714286  14.2857142857143 10.5357142857143  L 14.2857142857143 9.46428571428572  Z " fill-rule="nonzero" fill="#000000" stroke="none" transform="matrix(1 0 0 1 376 51 )" />
  </g>
</svg>