<?xml version="1.0" encoding="utf-8"?>
<svg version="1.1" xmlns:xlink="http://www.w3.org/1999/xlink" width="25px" height="25px" xmlns="http://www.w3.org/2000/svg">
  <g transform="matrix(1 0 0 1 -17 -402 )">
    <path d="M 23.0880041906757 14.9502840909091  C 23.2451545311682 14.6898674242424  23.3237297014144 14.4590435606061  23.3237297014144 14.2578125  C 23.3237297014144 13.8435132575758  23.0923694779116 13.6363636363636  22.6296490309062 13.6363636363636  L 8.38135149292824 13.6363636363636  C 8.03212851405623 13.6363636363636  7.65889645538677 13.7636126893939  7.26165531691985 14.0181107954545  C 6.86441417845294 14.2726089015151  6.55229614108608 14.5833333333333  6.32530120481928 14.9502840909091  L 2.47511786275537 21.3955965909091  C 2.31796752226296 21.6796875  2.23939235201676 21.9164299242424  2.23939235201676 22.1058238636364  C 2.23939235201676 22.5201231060606  2.47075257551947 22.7272727272727  2.93347302252488 22.7272727272727  L 17.1817705605029 22.7272727272727  C 17.5309935393749 22.7272727272727  17.9064082416623 22.5970643939394  18.3080146673651 22.3366477272727  C 18.7096210930679 22.0762310606061  19.0195564868168 21.7625473484849  19.2378208486118 21.3955965909091  L 23.0880041906757 14.9502840909091  Z M 6.54793085385018 11.9762073863636  C 7.1765322158198 11.5678267045455  7.78767242884582 11.3636363636364  8.38135149292824 11.3636363636364  L 18.4389732844421 11.3636363636364  L 18.4389732844421 8.52272727272727  C 18.4389732844421 8.04924242424242  18.3167452418369 7.6467803030303  18.0722891566265 7.31534090909091  C 17.8278330714161 6.98390151515151  17.5309935393749 6.81818181818182  17.1817705605029 6.81818181818182  L 9.63855421686747 6.81818181818182  C 9.28933123799546 6.81818181818182  8.99249170595425 6.65246212121212  8.74803562074385 6.32102272727273  C 8.50357953553344 5.98958333333333  8.38135149292824 5.58712121212121  8.38135149292824 5.11363636363637  L 8.38135149292824 3.97727272727273  C 8.38135149292824 3.50378787878788  8.25912345032303 3.10132575757575  8.01466736511262 2.76988636363636  C 7.77021127990222 2.43844696969697  7.47337174786101 2.27272727272727  7.124148768989 2.27272727272727  L 2.93347302252488 2.27272727272727  C 2.58425004365287 2.27272727272727  2.28741051161166 2.43844696969697  2.04295442640126 2.76988636363636  C 1.79849834119085 3.10132575757575  1.67627029858565 3.50378787878788  2 3.97727272727273  L 2 19.1228693181818  L 5.02881089575694 13.5298295454545  C 5.41295617251615 12.9024621212121  5.91932949188057 12.3845880681818  6.54793085385018 11.9762073863636  Z M 24.8035620743845 13.0504261363636  C 24.9345206914615 13.4292140151515  25 13.8316761363636  25 14.2578125  C 25 14.9917140151515  24.7991967871486 15.7019412878788  24.3975903614458 16.3884943181818  L 20.5343111576742 22.8338068181818  C 20.1588964553868 23.4611742424242  19.6525231360224 23.9790482954545  19.0151911995809 24.3874289772727  C 18.3778592631395 24.7958096590909  17.7667190501135 25  17.1817705605029 25  L 2.93347302252488 25  C 2.13026017111926 25  1.44054478784704 24.609375  0.864326872708224 23.828125  C 0.288108957569408 23.046875  0 22.1117424242424  0 21.0227272727273  L 0 3.97727272727273  C 0 2.88825757575757  0.288108957569408 1.953125  0.864326872708224 1.171875  C 1.44054478784704 0.390625  2.13026017111926 0  2.93347302252488 0  L 7.124148768989 0  C 7.92736162039462 0  8.61707700366684 0.390625  9.19329491880566 1.171875  C 9.76951283394448 1.953125  10.0576217915139 2.88825757575757  10.0576217915139 3.97727272727273  L 10.0576217915139 4.54545454545454  L 17.1817705605029 4.54545454545454  C 17.9849834119085 4.54545454545454  18.6746987951807 4.93607954545454  19.2509167103195 5.71732954545454  C 19.8271346254584 6.49857954545454  20.1152435830278 7.43371212121212  20.1152435830278 8.52272727272727  L 20.1152435830278 11.3636363636364  L 22.6296490309062 11.3636363636364  C 23.1011000523835 11.3636363636364  23.5332634887376 11.5086410984849  23.9261393399686 11.7986505681818  C 24.3190151911996 12.0886600378788  24.6114894360049 12.5059185606061  24.8035620743845 13.0504261363636  Z " fill-rule="nonzero" fill="#02a7f0" stroke="none" transform="matrix(1 0 0 1 17 402 )" />
  </g>
</svg>