<?xml version="1.0" encoding="utf-8"?>
<svg version="1.1" xmlns:xlink="http://www.w3.org/1999/xlink" width="14px" height="14px" xmlns="http://www.w3.org/2000/svg">
  <g transform="matrix(1 0 0 1 -351 -128 )">
    <path d="M 6.34375 0.145833333333333  C 6.34375 0.0656250000000004  6.278125 0  6.19791666666667 0  L 0.583333333333333 0  C 0.260677083333333 0  0 0.260677083333333  0 0.583333333333333  L 0 6.19791666666667  C 0 6.278125  0.0656250000000004 6.34375  0.145833333333333 6.34375  L 6.19791666666667 6.34375  C 6.278125 6.34375  6.34375 6.278125  6.34375 6.19791666666667  L 6.34375 0.145833333333333  Z M 5.17708333333333 1.16666666666667  L 5.17708333333333 5.17708333333333  L 1.16666666666667 5.17708333333333  L 1.16666666666667 1.16666666666667  L 5.17708333333333 1.16666666666667  Z M 2.515625 3.68229166666667  C 2.515625 3.7625  2.58125 3.828125  2.66145833333333 3.828125  L 3.68229166666667 3.828125  C 3.7625 3.828125  3.828125 3.7625  3.828125 3.68229166666667  L 3.828125 2.66145833333333  C 3.828125 2.58125  3.7625 2.515625  3.68229166666667 2.515625  L 2.66145833333333 2.515625  C 2.58125 2.515625  2.515625 2.58125  2.515625 2.66145833333333  L 2.515625 3.68229166666667  Z M 6.34375 7.80208333333333  C 6.34375 7.721875  6.278125 7.65625  6.19791666666667 7.65625  L 0.145833333333333 7.65625  C 0.0656250000000004 7.65625  0 7.721875  0 7.80208333333333  L 0 13.4166666666667  C 0 13.7393229166667  0.260677083333333 14  0.583333333333333 14  L 6.19791666666667 14  C 6.278125 14  6.34375 13.934375  6.34375 13.8541666666667  L 6.34375 7.80208333333333  Z M 5.17708333333333 8.82291666666667  L 5.17708333333333 12.8333333333333  L 1.16666666666667 12.8333333333333  L 1.16666666666667 8.82291666666667  L 5.17708333333333 8.82291666666667  Z M 2.515625 11.3385416666667  C 2.515625 11.41875  2.58125 11.484375  2.66145833333333 11.484375  L 3.68229166666667 11.484375  C 3.7625 11.484375  3.828125 11.41875  3.828125 11.3385416666667  L 3.828125 10.3177083333333  C 3.828125 10.2375  3.7625 10.171875  3.68229166666667 10.171875  L 2.66145833333333 10.171875  C 2.58125 10.171875  2.515625 10.2375  2.515625 10.3177083333333  L 2.515625 11.3385416666667  Z M 14 0.583333333333333  C 14 0.260677083333333  13.7393229166667 0  13.4166666666667 0  L 7.80208333333333 0  C 7.721875 0  7.65625 0.0656250000000004  7.65625 0.145833333333333  L 7.65625 6.19791666666667  C 7.65625 6.278125  7.721875 6.34375  7.80208333333333 6.34375  L 13.8541666666667 6.34375  C 13.934375 6.34375  14 6.278125  14 6.19791666666667  L 14 0.583333333333333  Z M 12.8333333333333 1.16666666666667  L 12.8333333333333 5.17708333333333  L 8.82291666666667 5.17708333333333  L 8.82291666666667 1.16666666666667  L 12.8333333333333 1.16666666666667  Z M 10.171875 3.68229166666667  C 10.171875 3.7625  10.2375 3.828125  10.3177083333333 3.828125  L 11.3385416666667 3.828125  C 11.41875 3.828125  11.484375 3.7625  11.484375 3.68229166666667  L 11.484375 2.66145833333333  C 11.484375 2.58125  11.41875 2.515625  11.3385416666667 2.515625  L 10.3177083333333 2.515625  C 10.2375 2.515625  10.171875 2.58125  10.171875 2.66145833333333  L 10.171875 3.68229166666667  Z M 14 7.80208333333333  C 14 7.721875  13.934375 7.65625  13.8541666666667 7.65625  L 12.9791666666667 7.65625  C 12.8989583333333 7.65625  12.8333333333333 7.721875  12.8333333333333 7.80208333333333  L 12.8333333333333 10.2447916666667  L 11.4114583333333 10.2447916666667  L 11.4114583333333 7.80208333333333  C 11.4114583333333 7.721875  11.3458333333333 7.65625  11.265625 7.65625  L 7.80208333333333 7.65625  C 7.721875 7.65625  7.65625 7.721875  7.65625 7.80208333333333  L 7.65625 13.8541666666667  C 7.65625 13.934375  7.721875 14  7.80208333333333 14  L 8.67708333333333 14  C 8.75729166666667 14  8.82291666666667 13.934375  8.82291666666667 13.8541666666667  L 8.82291666666667 9.40625  L 10.2447916666667 9.40625  L 10.2447916666667 11.265625  C 10.2447916666667 11.3458333333333  10.3104166666667 11.4114583333333  10.390625 11.4114583333333  L 13.8541666666667 11.4114583333333  C 13.934375 11.4114583333333  14 11.3458333333333  14 11.265625  L 14 7.80208333333333  Z M 11.4114583333333 12.9791666666667  C 11.4114583333333 12.8989583333333  11.3458333333333 12.8333333333333  11.265625 12.8333333333333  L 10.390625 12.8333333333333  C 10.3104166666667 12.8333333333333  10.2447916666667 12.8989583333333  10.2447916666667 12.9791666666667  L 10.2447916666667 13.8541666666667  C 10.2447916666667 13.934375  10.3104166666667 14  10.390625 14  L 11.265625 14  C 11.3458333333333 14  11.4114583333333 13.934375  11.4114583333333 13.8541666666667  L 11.4114583333333 12.9791666666667  Z M 14 12.9791666666667  C 14 12.8989583333333  13.934375 12.8333333333333  13.8541666666667 12.8333333333333  L 12.9791666666667 12.8333333333333  C 12.8989583333333 12.8333333333333  12.8333333333333 12.8989583333333  12.8333333333333 12.9791666666667  L 12.8333333333333 13.8541666666667  C 12.8333333333333 13.934375  12.8989583333333 14  12.9791666666667 14  L 13.8541666666667 14  C 13.934375 14  14 13.934375  14 13.8541666666667  L 14 12.9791666666667  Z " fill-rule="nonzero" fill="#7f7f7f" stroke="none" transform="matrix(1 0 0 1 351 128 )" />
  </g>
</svg>