<?xml version="1.0" encoding="utf-8"?>
<svg version="1.1" xmlns:xlink="http://www.w3.org/1999/xlink" width="25px" height="25px" xmlns="http://www.w3.org/2000/svg">
  <g transform="matrix(1 0 0 1 -17 -529 )">
    <path d="M 24.6469796075414 16.7228982300885  C 24.7768372450943 16.3827433628319  24.670065409773 15.9955752212389  24.3786071565987 15.7549778761062  L 22.4884570988842 14.2063053097345  C 22.5779145825317 13.6808628318584  22.624086186995 13.1443584070796  22.624086186995 12.6078539823009  C 22.624086186995 12.0713495575221  22.5779145825317 11.5348451327434  22.4884570988842 11.0094026548673  L 24.3786071565987 9.46073008849558  C 24.670065409773 9.2228982300885  24.7768372450943 8.83573008849558  24.6469796075414 8.48727876106195  L 24.6210080800308 8.41537610619469  C 24.0986918045402 7.01880530973451  23.3253174297807 5.73561946902655  22.3210850327049 4.60176991150442  L 22.2691419776837 4.54369469026549  C 22.0209696036937 4.26438053097345  21.6198537899192 4.15929203539823  21.2562524047711 4.28097345132743  L 18.9101577529819 5.08019911504425  C 18.0444401692959 4.39988938053097  17.0777222008465 3.86338495575221  16.0330896498653 3.48727876106195  L 15.5800307810696 1.13661504424779  C 15.5107733743747 0.774336283185843  15.2135436706425 0.492256637168142  14.8355136590996 0.425884955752213  L 14.7575990765679 0.412057522123895  C 13.2541362062332 0.152101769911506  11.6727587533667 0.152101769911506  10.1692958830319 0.412057522123895  L 10.0913813005002 0.425884955752213  C 9.71335128895728 0.492256637168142  9.41612158522508 0.774336283185843  9.3468641785302 1.13661504424779  L 8.89091958445555 3.4983407079646  C 7.85494420931127 3.87444690265487  6.89399769141977 4.40818584070797  6.03405155829164 5.08573008849558  L 3.67064255482877 4.28097345132743  C 3.3099268949596 4.15929203539823  2.90592535590611 4.26161504424779  2.65775298191612 4.54369469026549  L 2.60580992689495 4.60176991150443  C 1.60157752981915 5.73838495575222  0.828203155059634 7.02157079646018  0.305886879569061 8.41537610619469  L 0.279915352058478 8.48727876106195  C 0.150057714505575 8.83296460176991  0.256829549826853 9.22013274336283  0.548287803001148 9.46073008849558  L 2.46152366294728 11.0259955752212  C 2.37206617929973 11.545907079646  2.32878030011543 12.0768805309735  2.32878030011543 12.6050884955752  C 2.32878030011543 13.1360619469027  2.37206617929973 13.6670353982301  2.46152366294728 14.1841814159292  L 0.548287803001155 15.7494469026549  C 0.256829549826857 15.9872787610619  0.150057714505578 16.3744469026549  0.279915352058486 16.7228982300885  L 0.305886879569065 16.7948008849558  C 0.828203155059637 18.1886061946903  1.60157752981916 19.4745575221239  2.60580992689496 20.608407079646  L 2.65775298191612 20.666482300885  C 2.90592535590612 20.945796460177  3.30704116968065 21.0508849557522  3.67064255482878 20.929203539823  L 6.03405155829165 20.1244469026549  C 6.89399769141978 20.8019911504425  7.85494420931127 21.3384955752212  8.89091958445556 21.7118362831858  L 9.3468641785302 24.0735619469027  C 9.41612158522508 24.4358407079646  9.71335128895729 24.7179203539823  10.0913813005002 24.7842920353982  L 10.1692958830319 24.7981194690265  C 10.9224701808388 24.9280973451327  11.6929588303194 24.9944690265487  12.4634474797999 24.9944690265487  C 13.2339361292805 24.9944690265487  14.00731050404 24.9280973451327  14.7575990765679 24.7981194690265  L 14.8355136590997 24.7842920353982  C 15.2135436706426 24.7179203539823  15.5107733743748 24.4358407079646  15.5800307810696 24.0735619469027  L 16.0330896498653 21.7228982300885  C 17.0777222008465 21.3467920353982  18.0444401692959 20.8130530973451  18.9101577529819 20.1299778761062  L 21.2562524047711 20.929203539823  C 21.6169680646403 21.0508849557522  22.0209696036937 20.9485619469027  22.2691419776837 20.666482300885  L 22.3210850327049 20.608407079646  C 23.3253174297807 19.4717920353982  24.0986918045402 18.1886061946903  24.6210080800308 16.7948008849558  L 24.6469796075414 16.7228982300885  Z M 20.2520200076953 10.2323008849558  L 20.4395921508272 11.3357300884956  C 20.5117352828011 11.7533185840708  20.5492497114275 12.1819690265487  20.5492497114275 12.6106194690265  C 20.5492497114275 13.0392699115044  20.5117352828011 13.4679203539823  20.4395921508272 13.8855088495575  L 20.2491342824163 14.9944690265487  L 22.4047710657945 16.7616150442478  C 22.0786841092728 17.483407079646  21.6660253943825 18.1637168141593  21.1754520969604 18.7970132743363  L 18.4974990380916 17.8871681415929  L 17.5913813005002 18.6006637168142  C 16.9016929588303 19.1426991150442  16.1340900346287 19.5685840707965  15.3030011542901 19.8672566371681  L 14.2035398230089 20.262721238938  L 13.6869949980762 22.9452433628318  C 12.8761061946903 23.0337389380531  12.0479030396306 23.0337389380531  11.2341285109658 22.9452433628318  L 10.7175836860331 20.2571902654867  L 9.62677953058869 19.8561946902655  C 8.80434782608696 19.5575221238938  8.03963062716429 19.1316371681416  7.35571373605233 18.5923672566372  L 6.44959599846095 17.8761061946903  L 3.75432858791843 18.7942477876106  C 3.26375529049634 18.1609513274336  2.85398230088496 17.4778761061947  2.52500961908427 16.7588495575221  L 4.70373220469412 14.975110619469  L 4.51616006156214 13.8689159292035  C 4.44690265486726 13.4568584070796  4.40938822624086 13.0309734513274  4.40938822624086 12.6106194690265  C 4.40938822624086 12.1875  4.44401692958831 11.7643805309734  4.51616006156214 11.3523230088496  L 4.70373220469412 10.2461283185841  L 2.52500961908427 8.46238938053096  C 2.85109657560601 7.74059734513273  3.26375529049634 7.06028761061946  3.75432858791843 6.42699115044247  L 6.44959599846095 7.34513274336282  L 7.35571373605233 6.62887168141592  C 8.03963062716429 6.0896017699115  8.80434782608696 5.66371681415928  9.62677953058869 5.36504424778761  L 10.720469411312 4.96957964601769  L 11.2370142362447 2.28152654867256  C 12.0479030396306 2.19303097345132  12.8761061946903 2.19303097345132  13.6898807233551 2.28152654867256  L 14.2064255482878 4.96404867256636  L 15.3058868795691 5.35951327433628  C 16.1340900346287 5.65818584070796  16.9045786841093 6.08407079646017  17.5942670257791 6.62610619469026  L 18.5003847633705 7.3396017699115  L 21.1783378222393 6.42975663716814  C 21.6689111196614 7.06305309734512  22.0786841092728 7.74612831858407  22.4076567910735 8.46515486725663  L 20.2520200076953 10.2323008849558  Z M 17.5452096960369 12.3340707964602  C 17.5452096960369 9.64601769911504  15.2712581762216 7.46681415929204  12.4663332050789 7.46681415929204  C 9.66140823393613 7.46681415929204  7.38745671412081 9.64601769911505  7.38745671412081 12.3340707964602  C 7.38745671412081 15.0221238938053  9.66140823393613 17.2013274336283  12.4663332050789 17.2013274336283  C 15.2712581762216 17.2013274336283  17.5452096960369 15.0221238938053  17.5452096960369 12.3340707964602  Z M 15.6983455175067 12.3340707964602  C 15.6983455175067 13.1609513274336  15.3607156598692 13.9380530973451  14.75182762601 14.5243362831858  C 14.1400538668719 15.1078539823009  13.329165063486 15.4314159292035  12.4663332050789 15.4314159292035  C 11.6035013466718 15.4314159292035  10.7926125432859 15.1078539823009  10.1808387841477 14.5243362831858  C 9.57195075028857 13.9380530973451  9.23432089265102 13.1609513274336  9.23432089265102 12.3340707964602  C 9.23432089265102 11.5071902654867  9.57195075028857 10.7300884955752  10.1808387841477 10.1438053097345  C 10.7926125432859 9.55752212389381  11.6035013466718 9.23672566371681  12.4663332050789 9.23672566371681  C 13.329165063486 9.23672566371681  14.1400538668719 9.55752212389381  14.75182762601 10.1438053097345  C 15.3607156598692 10.7300884955752  15.6983455175067 11.5071902654867  15.6983455175067 12.3340707964602  Z " fill-rule="nonzero" fill="#027db4" stroke="none" transform="matrix(1 0 0 1 17 529 )" />
  </g>
</svg>